<svg viewBox="0 0 1167 738" xmlns="http://www.w3.org/2000/svg" xmlns:xlink="http://www.w3.org/1999/xlink"><defs><linearGradient id="c"><stop stop-color="#fff" offset="0"/><stop stop-color="#fff" stop-opacity="0" offset="1"/></linearGradient><linearGradient id="b"><stop stop-color="#fff" offset="0"/><stop stop-color="#d0d0d0" offset=".5"/><stop stop-color="#adadad" offset="1"/></linearGradient><linearGradient id="a"><stop stop-color="#fff" offset="0"/><stop stop-color="#d0d0d0" offset=".34"/><stop offset=".67"/><stop stop-opacity="0" offset="1"/></linearGradient><filter id="d" color-interpolation-filters="sRGB"><feGaussianBlur stdDeviation="3.198"/></filter><radialGradient id="bb" cx="673.27" cy="378.93" r="98.168" gradientTransform="matrix(6.6115 3.8172 -1.1351 1.9661 -3357.2 -3004.3)" gradientUnits="userSpaceOnUse" xlink:href="#a"/><radialGradient id="aO" cx="562.12" cy="120.92" r="37.923" gradientTransform="matrix(4.3693 1.1708 -1.301 4.8553 -1824.4 -1181.3)" gradientUnits="userSpaceOnUse" xlink:href="#a"/><radialGradient id="aJ" cx="1019.6" cy="957.67" r="54.296" gradientTransform="matrix(1.0341 -.27709 .47504 1.6267 -1029.5 -945.07)" gradientUnits="userSpaceOnUse" xlink:href="#b"/><linearGradient id="aK" x1="1401.1" x2="1429.4" y1="1111.5" y2="1111.5" gradientTransform="translate(-940.08 -774.52)" gradientUnits="userSpaceOnUse" xlink:href="#a"/><linearGradient id="aX" x1="1089.7" x2="1426.8" y1="2109" y2="801.17" gradientTransform="matrix(.96058 -.26443 .26338 .9644 9.707 220)" gradientUnits="userSpaceOnUse" xlink:href="#a"/><linearGradient id="aw" x1="966.28" x2="1075.9" y1="768.35" y2="685.45" gradientTransform="matrix(.20148 0 0 .22551 -144.55 26.993)" gradientUnits="userSpaceOnUse" xlink:href="#a"/><radialGradient id="aq" cx="1412.2" cy="1111.4" r="58.882" gradientTransform="matrix(.99187 0 0 1.4808 11.475 -534.38)" gradientUnits="userSpaceOnUse" xlink:href="#a"/><radialGradient id="A" cx="999.8" cy="972.31" r="54.296" gradientTransform="matrix(2.0588 0 .07276 3.2581 -1650 -2830.9)" gradientUnits="userSpaceOnUse" xlink:href="#a"/><radialGradient id="ao" cx="984.14" cy="962.49" r="45.166" gradientTransform="matrix(-1.4283 .3827 -.5903 -2.203 2022 1932)" gradientUnits="userSpaceOnUse" xlink:href="#b" spreadMethod="reflect"/><linearGradient id="am" x1="1601.7" x2="1407.2" y1="1101.2" y2="917.23" gradientUnits="userSpaceOnUse" xlink:href="#a"/><linearGradient id="ax" x1="1375.9" x2="1308.2" y1="961.04" y2="1009.5" gradientTransform="translate(-936.08 -772.52)" gradientUnits="userSpaceOnUse" xlink:href="#b"/><radialGradient id="al" cx="1054.4" cy="962.37" r="42.15" gradientTransform="matrix(9.0598 0 0 16.013 -8265.2 -14448)" gradientUnits="userSpaceOnUse" xlink:href="#a"/><linearGradient id="ah" x1="1894" x2="1885.3" y1="924.16" y2="1019.2" gradientTransform="translate(401.22 204.75) scale(.78218)" gradientUnits="userSpaceOnUse" xlink:href="#b"/><radialGradient id="aV" cx="1519.9" cy="808.8" r="14.196" gradientTransform="rotate(-45 688.442 4906.236) scale(2.6491 3.4387)" gradientUnits="userSpaceOnUse" xlink:href="#b"/><radialGradient id="E" cx="1740.2" cy="918.69" r="42.976" gradientTransform="matrix(-1.057 2.069 -2.0337 -1.1742 4714.7 -2385.5)" gradientUnits="userSpaceOnUse" xlink:href="#a" spreadMethod="reflect"/><radialGradient id="ad" cx="999.8" cy="972.31" r="54.296" gradientTransform="matrix(1.2822 -.34355 .55378 2.4057 -1767.5 -1802.6)" gradientUnits="userSpaceOnUse" xlink:href="#a"/><linearGradient id="Y" x1="482.13" x2="612.94" y1="981.63" y2="956.15" gradientTransform="matrix(1.125 0 .86177 .70782 -143.41 168.98)" gradientUnits="userSpaceOnUse" xlink:href="#b"/><radialGradient id="S" cx="1661" cy="737.21" r="143.3" gradientTransform="matrix(4.4774 1.4042 -.52818 1.6842 -6349 -3395)" gradientUnits="userSpaceOnUse" xlink:href="#b"/><radialGradient id="O" cx="1934.4" cy="1074.6" r="7.635" gradientTransform="matrix(0 9.3375 -36.629 0 40265 -17746)" gradientUnits="userSpaceOnUse" xlink:href="#a"/><radialGradient id="G" cx="1478.8" cy="807.88" r="58.786" gradientTransform="matrix(2.2676 2.2676 -1.8694 1.8694 -414.71 -3939.4)" gradientUnits="userSpaceOnUse" xlink:href="#b"/><linearGradient id="x" x1="1017.2" x2="298.26" y1="817.56" y2="926.78" gradientTransform="matrix(.98749 0 .75646 .63475 -896.73 -531.59)" gradientUnits="userSpaceOnUse" xlink:href="#b"/><radialGradient id="l" cx="1654.8" cy="878.06" r="14.402" gradientTransform="matrix(-1.7901 0 0 -1.4277 4633.7 2133.7)" gradientUnits="userSpaceOnUse" xlink:href="#b"/><radialGradient id="f" cx="1259.2" cy="744.54" r="500.39" gradientTransform="matrix(.7258 .19448 -.07568 .28244 388.79 467.47)" gradientUnits="userSpaceOnUse" xlink:href="#b"/><linearGradient id="e" x1="1316.8" x2="1141.1" y1="837.6" y2="1091.9" gradientTransform="matrix(.97591 0 0 .98501 -881.05 -529.53)" gradientUnits="userSpaceOnUse" xlink:href="#a" spreadMethod="reflect"/><linearGradient id="aQ" x1="386.85" x2="647.63" y1="1017.6" y2="862.33" gradientTransform="matrix(1 0 .76604 .64279 -918.94 -543.09)" gradientUnits="userSpaceOnUse" xlink:href="#b"/><filter id="aU" color-interpolation-filters="sRGB"><feGaussianBlur stdDeviation="1.616"/></filter><filter id="z" color-interpolation-filters="sRGB"><feGaussianBlur stdDeviation="1.296"/></filter><filter id="R" color-interpolation-filters="sRGB"><feGaussianBlur stdDeviation=".531"/></filter><filter id="H" color-interpolation-filters="sRGB"><feGaussianBlur stdDeviation="1.127"/></filter><filter id="an" color-interpolation-filters="sRGB"><feGaussianBlur stdDeviation="1.271"/></filter><filter id="p" color-interpolation-filters="sRGB"><feGaussianBlur stdDeviation="2.85"/></filter><filter id="af" color-interpolation-filters="sRGB"><feGaussianBlur stdDeviation=".915"/></filter><filter id="az" color-interpolation-filters="sRGB"><feGaussianBlur stdDeviation="1.05"/></filter><filter id="aZ" color-interpolation-filters="sRGB"><feGaussianBlur stdDeviation=".299"/></filter><radialGradient id="aB" cx="1055.5" cy="718.82" r="34.888" gradientTransform="matrix(4.3146 1.616 -.29793 .8028 -3198.9 -1298.8)" gradientUnits="userSpaceOnUse" xlink:href="#b"/><filter id="t" color-interpolation-filters="sRGB"><feGaussianBlur stdDeviation=".582"/></filter><filter id="k" color-interpolation-filters="sRGB"><feGaussianBlur stdDeviation=".832"/></filter><linearGradient id="aW" x1="1526" x2="1496.2" y1="997.05" y2="1025.8" gradientTransform="translate(-806.71 -687.3) scale(.91519)" gradientUnits="userSpaceOnUse" xlink:href="#c"/><filter id="D" color-interpolation-filters="sRGB"><feGaussianBlur stdDeviation=".934"/></filter><filter id="V" color-interpolation-filters="sRGB"><feGaussianBlur stdDeviation="1.03"/></filter><radialGradient id="m" cx="1628.2" cy="935.34" r="250.69" gradientTransform="matrix(2.175 .58279 -.25285 .94366 -2636.1 -1648)" gradientUnits="userSpaceOnUse" xlink:href="#b" spreadMethod="reflect"/><filter id="n" color-interpolation-filters="sRGB"><feGaussianBlur stdDeviation=".992"/></filter><linearGradient id="L" x1="1659.3" x2="1453" y1="977.48" y2="805.37" gradientTransform="translate(-1170.4 -682.92) scale(1.1565)" gradientUnits="userSpaceOnUse" xlink:href="#a"/><radialGradient id="o" cx="633.93" cy="152.86" r="353.06" gradientTransform="matrix(3.5338 2.0402 -.77813 1.3478 -1922.8 -1437.8)" gradientUnits="userSpaceOnUse" xlink:href="#b" spreadMethod="reflect"/><linearGradient id="N" x1="850.9" x2="563.4" y1="348.4" y2="307.5" gradientTransform="matrix(1 0 0 .96026 0 12.814)" gradientUnits="userSpaceOnUse" xlink:href="#a"/><linearGradient id="y" x1="1437.4" x2="1846.6" y1="961.13" y2="1094" gradientTransform="matrix(1.0497 .08739 -.07141 .8578 -926.79 -762.04)" gradientUnits="userSpaceOnUse" xlink:href="#b" spreadMethod="reflect"/><filter id="J" color-interpolation-filters="sRGB"><feGaussianBlur stdDeviation="1.527"/></filter><linearGradient id="I" x1="1741.3" x2="1658.9" y1="1046.7" y2="1149.8" gradientUnits="userSpaceOnUse" xlink:href="#a"/><linearGradient id="au" x1="1304" x2="1500.5" y1="1176.8" y2="901.23" gradientTransform="translate(-936.08 -774.52)" gradientUnits="userSpaceOnUse" xlink:href="#a"/><radialGradient id="at" cx="1059" cy="971.12" r="45.166" gradientTransform="matrix(-3.3382 5.2063 -12.308 -7.1061 15935 1619.9)" gradientUnits="userSpaceOnUse" xlink:href="#b" spreadMethod="reflect"/><linearGradient id="ap" x1="919.03" x2="1038.8" y1="1074.5" y2="799.53" gradientTransform="translate(-936.08 -774.52)" gradientUnits="userSpaceOnUse" xlink:href="#a"/><linearGradient id="W" x1="1310.8" x2="1151.4" y1="1189.4" y2="797.11" gradientUnits="userSpaceOnUse" xlink:href="#a"/><filter id="r" color-interpolation-filters="sRGB"><feGaussianBlur stdDeviation=".264"/></filter><linearGradient id="q" x1="147.7" x2="281.33" y1="136.35" y2="70.636" gradientUnits="userSpaceOnUse" xlink:href="#b"/><filter id="ay" color-interpolation-filters="sRGB"><feGaussianBlur stdDeviation="1.366"/></filter><radialGradient id="aH" cx="998.55" cy="959.44" r="54.296" gradientTransform="matrix(4.7669 2.7521 -2.3366 4.4362 -2057.3 -6748.3)" gradientUnits="userSpaceOnUse" xlink:href="#b" spreadMethod="reflect"/><filter id="aI" color-interpolation-filters="sRGB"><feGaussianBlur stdDeviation="1.33"/></filter><radialGradient id="av" cx="986.92" cy="967.51" r="8.758" gradientTransform="matrix(2.8774 0 0 5.5911 -2788.9 -5216.4)" gradientUnits="userSpaceOnUse" xlink:href="#b"/><radialGradient id="ag" cx="1108.4" cy="1115.7" r="111.16" gradientTransform="matrix(6.0556 2.1224 -.20485 .58448 -5373.9 -1977.7)" gradientUnits="userSpaceOnUse" xlink:href="#b"/><radialGradient id="ae" cx="1176.7" cy="1011.1" r="127.64" gradientTransform="matrix(2.0248 .85073 -.18135 .43162 -1012.8 -404.62)" gradientUnits="userSpaceOnUse" xlink:href="#b"/><radialGradient id="j" cx="1210.3" cy="915.06" r="111.48" gradientTransform="matrix(1.4463 .30925 -.10085 .52329 -438.26 119.7)" gradientUnits="userSpaceOnUse" xlink:href="#b"/><linearGradient id="aY" x1="1141.2" x2="1137.1" y1="956.44" y2="996.74" gradientTransform="translate(1.995 -.758)" gradientUnits="userSpaceOnUse" xlink:href="#b"/><radialGradient id="aA" cx="1095.4" cy="978.41" r="30.972" gradientTransform="matrix(.97349 1.5034 -.99478 .5343 76.009 -1964.6)" gradientUnits="userSpaceOnUse" xlink:href="#a"/><filter id="F" color-interpolation-filters="sRGB"><feGaussianBlur stdDeviation=".395"/></filter><filter id="ai" color-interpolation-filters="sRGB"><feGaussianBlur stdDeviation=".43"/></filter><filter id="ak" color-interpolation-filters="sRGB"><feGaussianBlur stdDeviation=".148"/></filter><radialGradient id="aj" cx="1895.2" cy="968.73" r="14.079" gradientTransform="matrix(2.8454 -.76242 1.0223 3.8151 -4493.7 -1288.6)" gradientUnits="userSpaceOnUse" xlink:href="#a"/><radialGradient id="u" cx="1358.1" cy="976.07" r="11.713" gradientTransform="matrix(1.2061 -.32317 1.2739 4.7543 -1523 -3222.7)" gradientUnits="userSpaceOnUse" xlink:href="#b"/><filter id="M" color-interpolation-filters="sRGB"><feGaussianBlur stdDeviation="2.203"/></filter><radialGradient id="K" cx="1864.2" cy="1235.6" r="102.99" gradientTransform="matrix(8.8475 0 0 4.2554 -14502 -3683.1)" gradientUnits="userSpaceOnUse" xlink:href="#a" spreadMethod="reflect"/><filter id="ab" color-interpolation-filters="sRGB"><feGaussianBlur stdDeviation=".418"/></filter><filter id="ac" color-interpolation-filters="sRGB"><feGaussianBlur stdDeviation=".366"/></filter><filter id="ba" x="-.04" y="-.122" width="1.079" height="1.245" color-interpolation-filters="sRGB"><feGaussianBlur stdDeviation="2.45"/></filter><filter id="v" color-interpolation-filters="sRGB"><feGaussianBlur stdDeviation=".289"/></filter><filter id="w" color-interpolation-filters="sRGB"><feGaussianBlur stdDeviation=".262"/></filter><radialGradient id="s" cx="1337.9" cy="972.95" r="39.828" gradientTransform="matrix(1.7954 1.0366 -.48102 .83316 -1545.7 -2015.8)" gradientUnits="userSpaceOnUse" xlink:href="#c"/><filter id="aG" color-interpolation-filters="sRGB"><feGaussianBlur stdDeviation="1.943"/></filter><radialGradient id="aP" cx="1284.1" cy="749.34" r="107.9" gradientTransform="matrix(2.2521 2.2521 -1.1715 1.1715 -1509 -3769.8)" gradientUnits="userSpaceOnUse" xlink:href="#a" spreadMethod="reflect"/><linearGradient id="U" x1="1567.9" x2="1668.1" y1="973.56" y2="973.56" gradientTransform="translate(141.32 70.89) scale(.92645)" gradientUnits="userSpaceOnUse" xlink:href="#c"/><filter id="T" color-interpolation-filters="sRGB"><feGaussianBlur stdDeviation=".394"/></filter><radialGradient id="g" cx="873.56" cy="626.35" r="513.2" gradientTransform="matrix(-.12016 .26745 -2.4757 -1.1123 1816.8 577.36)" gradientUnits="userSpaceOnUse" xlink:href="#b" spreadMethod="reflect"/><radialGradient id="ar" cx="966.43" cy="1006.4" r="54.296" gradientTransform="matrix(.6766 1.3155 -1.3219 .73867 1117.1 -1586.8)" gradientUnits="userSpaceOnUse" xlink:href="#c"/><linearGradient id="as" x1="1375.8" x2="1381" y1="1121.8" y2="1071.9" gradientTransform="translate(-936.08 -774.52)" gradientUnits="userSpaceOnUse" xlink:href="#c"/><linearGradient id="aN" x1="591.26" x2="526.29" y1="74.98" y2="74.475" gradientUnits="userSpaceOnUse" xlink:href="#a"/><linearGradient id="h" x1="566.09" x2="536.23" y1="75.737" y2="67.656" gradientUnits="userSpaceOnUse" xlink:href="#a"/><radialGradient id="Q" cx="1514.6" cy="857.98" r="58.786" gradientTransform="matrix(2.1379 2.1379 -1.7625 1.7625 -1239.8 -4429.8)" gradientUnits="userSpaceOnUse" xlink:href="#b"/><filter id="B" color-interpolation-filters="sRGB"><feGaussianBlur stdDeviation=".866"/></filter><radialGradient id="aC" cx="1233.5" cy="535.33" r="13.58" gradientTransform="matrix(.91869 .31847 -.00571 .27525 24.203 399.04)" gradientUnits="userSpaceOnUse" xlink:href="#b" spreadMethod="reflect"/><radialGradient id="aD" cx="1154.4" cy="939.23" r="14.049" gradientTransform="matrix(1 0 0 .68099 0 299.62)" gradientUnits="userSpaceOnUse" xlink:href="#c"/><linearGradient id="aF" x1="217.8" x2="220.61" y1="167.84" y2="154.98" gradientUnits="userSpaceOnUse" xlink:href="#b"/><radialGradient id="aE" cx="1216.6" cy="534.41" r="11.854" gradientTransform="matrix(-5.6181 -5.6181 .57353 -2.7861 6746.1 8491.5)" gradientUnits="userSpaceOnUse" xlink:href="#b" spreadMethod="reflect"/><linearGradient id="aL" x1="1343.5" x2="1174.8" y1="493.32" y2="1020.2" gradientUnits="userSpaceOnUse" xlink:href="#a"/><radialGradient id="i" cx="640.68" cy="263.16" r="153.06" gradientTransform="matrix(2.0622 1.1832 -.49298 .84857 -579.14 -772.05)" gradientUnits="userSpaceOnUse" xlink:href="#a"/><linearGradient id="aM" x1="1334.4" x2="1322.2" y1="1079.3" y2="732.85" gradientTransform="matrix(1 0 0 1.0254 -936.08 -798.43)" gradientUnits="userSpaceOnUse" xlink:href="#a" spreadMethod="repeat"/><radialGradient id="aS" cx="1555" cy="699.27" r="202.07" gradientTransform="matrix(1.8867 1.0845 -.50764 .88319 -1832.8 -2335.5)" gradientUnits="userSpaceOnUse" xlink:href="#a" spreadMethod="reflect"/><radialGradient id="aT" cx="562.34" cy="-76.752" r="202.56" gradientTransform="matrix(.80321 .21522 -.07699 .28732 116.11 -15.428)" gradientUnits="userSpaceOnUse" xlink:href="#a"/><linearGradient id="C" x1="1966.1" x2="1864" y1="926.29" y2="987.36" gradientUnits="userSpaceOnUse" xlink:href="#b" spreadMethod="reflect"/><linearGradient id="aa" x1="165.25" x2="1075.1" y1="1137.3" y2="636.09" gradientTransform="matrix(.98818 0 .75699 .63519 31.707 238.97)" gradientUnits="userSpaceOnUse" xlink:href="#a"/><filter id="Z" color-interpolation-filters="sRGB"><feGaussianBlur stdDeviation="1.972"/></filter><radialGradient id="aR" cx="1179.1" cy="851.18" r="16.219" gradientTransform="matrix(.99601 .26688 -.68538 2.5579 587.76 -1635.7)" gradientUnits="userSpaceOnUse" xlink:href="#b"/><filter id="X" color-interpolation-filters="sRGB"><feGaussianBlur stdDeviation="1.429"/></filter><filter id="P" color-interpolation-filters="sRGB"><feGaussianBlur stdDeviation=".183"/></filter></defs><path transform="translate(77.85 154.44)" d="M413.25 30.094c-63.774.48-127.33 9.89-189.94 22.219-58.599 2.865-116.38 14.256-174.16 24.031-20.794 140.03 21.193 87.732-6.719 188 5.014 32.007 12.453 10.026 42.47 25.25 89.075 6.372 171.63 42.201 253.97 73.781 54.321 17.841 77.396 64.602 149.28 78.5s167.74 23.148 258.5 21.219c73.47-10.821 149.37-17.799 218.22-47.719 47.545-9.065 45.508-60.553 44.5-98.469 1.164-51.912-37.026-90.9-69.25-126.81-43.665-50.251-113.87-50.042-174.97-50.906-33.605-22.259-69.317-41.109-105.28-59.219-51.789-31.282-112.4-40.685-171.72-45.969-24.968-2.912-49.952-4.094-74.907-3.906z" fill="#1a1a1a" filter="url(#d)"/><path transform="translate(77.85 154.44)" d="M617.03 33.562C594.366 40.503 464.28 52.515 398.09 61.5c18.438 28.88 32.667 48.927 61.312 103.31 3.787 6.88 130.57 13.689 200.84 6.594 48.008-5.936 167.85-17.674 123.84-50.562a198.599 198.599 0 0 0-10.906-7.594c-3.651-.094-7.163-.19-11-.281-14.32-9.61-29.721-18.948-45.875-28.094-7.471-3.385-13.832-6.64-18.688-10.344-25.778-13.934-53.053-27.48-80.594-40.97z" color="#000" fill="url(#e)" opacity=".77"/><path d="M998 819.34c-.1.016-.214.047-.313.063-.213.033-.414.06-.625.093-1.65.259-3.227.485-4.718.688-.14.019-.3.044-.438.062-.18.023-.361.04-.531.063-.049.006-.108.025-.156.03-.595.078-1.153.153-1.72.22-.38.044-.787.085-1.155.125-.92.1-1.793.183-2.625.25-.726.058-1.454.13-2.157.218-.618.078-1.21.18-1.812.282-.286.048-.562.103-.844.156-.474.09-.943.178-1.406.281-.58.13-1.155.255-1.719.406-.081.022-.168.04-.25.063-.443.122-.879.27-1.312.406a39.5 39.5 0 0 0-1.156.375c-.41.142-.818.283-1.22.438-.483.186-.966.39-1.437.593-.051.023-.105.04-.156.063-.063.02-.128.036-.188.062-.305.136-.606.296-.906.438-.262.125-.523.245-.781.375-.18.09-.355.187-.531.281-.083.044-.168.081-.25.125-.094.051-.187.105-.282.156-.261.143-.523.29-.78.438-.47.27-.92.555-1.376.844-.519.329-1.03.678-1.53 1.03-.396.28-.773.552-1.157.845-.03.022-.064.04-.094.062-.074.05-.147.1-.219.156-.116.09-.228.19-.343.282-.42.333-.844.68-1.25 1.03-.029.025-.066.039-.094.063-.183.161-.348.336-.531.5-.095.085-.188.165-.282.25-.105.094-.21.187-.312.282-.044.04-.082.084-.125.125-.413.389-.82.78-1.219 1.187l-.031.031a46.734 46.734 0 0 0-2.344 2.563c-.024.028-.038.065-.062.093-.35.419-.694.85-1.031 1.282-.046.059-.08.128-.125.187-.313.405-.636.803-.938 1.219-.066.091-.122.19-.187.281-.278.388-.545.76-.813 1.156l-.062.094c-.131.194-.247.398-.375.594-.289.439-.566.863-.844 1.312-.335.543-.68 1.1-1 1.657-.183.318-.353.645-.531.968a68.663 68.663 0 0 0-1.688 3.25c-.44.909-.872 1.844-1.281 2.782-.019.042-.044.082-.063.125l-.093.218c-.186.43-.352.877-.532 1.313-.101.252-.211.498-.312.75-.23.571-.469 1.138-.688 1.719-.003.009.003.022 0 .03-.087.238-.162.482-.25.72-.232.632-.466 1.265-.687 1.906-.106.302-.211.603-.313.906-.007.022-.024.04-.03.062-.004.01.002.022 0 .032-.41 1.225-.819 2.465-1.188 3.718-.003.01.003.022 0 .032 1.43 5.528 3.85 11.326 7.218 17.188.073-.098.146-.186.22-.282.008-.011.021-.019.03-.03.369-.483.746-.935 1.125-1.376.219-.253.435-.51.657-.75.02-.021.042-.04.062-.062.106-.114.206-.234.313-.344l.03-.031.063-.063c.228-.233.458-.44.688-.656.185-.177.374-.363.562-.531.056-.05.101-.109.157-.156.092-.081.188-.14.28-.22.103-.086.21-.165.313-.25.22-.18.433-.36.657-.53.3-.228.601-.45.906-.657.34-.232.684-.48 1.031-.687.02-.012.042-.02.063-.031.133-.08.272-.144.406-.22.313-.175.62-.343.937-.5.05-.024.106-.038.157-.062.083-.04.166-.086.25-.125.033-.015.06-.047.093-.062.134-.062.272-.098.407-.156.28-.121.559-.237.843-.344a19.513 19.513 0 0 1 1.875-.594c.176-.046.354-.115.531-.156.444-.104.89-.18 1.344-.25.21-.034.414-.066.625-.094a21.57 21.57 0 0 1 1.844-.156c.374-.017.747-.033 1.125-.031h.219c.404.006.81.036 1.219.062.393.025.79.051 1.187.094.084.009.166.021.25.031.042.008.082.026.125.031.609.075 1.226.134 1.844.25.032.006.062.026.094.032.042.008.083.023.125.03.64.125 1.288.27 1.937.438.704.182 1.411.395 2.125.625.683.22 1.37.456 2.063.719.03.012.062.02.093.031.074.028.145.065.22.094.656.255 1.304.521 1.968.812.723.318 1.456.641 2.187 1a43.636 43.636 0 0 1 3.47 1.907c.043.027.08.066.124.093.594.365 1.168.73 1.75 1.125.488.33.959.65 1.438 1 8.052 3.455 15.81 10.193 22.656 19.438l340.5 125.66c.059-.116.128-.228.187-.344.208-.402.41-.792.625-1.187.164-.3.332-.579.5-.875a54.5 54.5 0 0 1 1.188-2v-.03c.406-.65.85-1.282 1.281-1.907.435-.633.884-1.268 1.344-1.875.086-.114.163-.231.25-.344.281-.365.583-.71.875-1.062.066-.081.12-.17.187-.25.033-.04.06-.086.094-.125.1-.119.213-.227.313-.344.393-.463.778-.93 1.187-1.375a46.64 46.64 0 0 1 1.563-1.625l.125-.125c.496-.487 1.013-.943 1.53-1.406a45.33 45.33 0 0 1 1.72-1.47 44.928 44.928 0 0 1 1.75-1.343c.019-.014.044-.018.063-.03a45.334 45.334 0 0 1 1.875-1.313c.638-.418 1.303-.8 1.968-1.188a48.147 48.147 0 0 1 6.375-3.125c.021-.009.042-.023.062-.031a51.693 51.693 0 0 1 2.125-.781l.094-.032.281-.093a56.923 56.923 0 0 1 4.406-1.281c.053-.013.105-.02.157-.032a61.414 61.414 0 0 1 5.188-1.03c.893-.14 1.795-.27 2.718-.376a75.585 75.585 0 0 1 5.75-.437 38.176 38.176 0 0 1 2.313 0c1.542.035 3.112.158 4.656.375h.031c2.33.328 4.645.866 6.969 1.593.774.243 1.54.496 2.312.782a53.11 53.11 0 0 1 4.625 1.968 60.41 60.41 0 0 1 4.594 2.47 71.269 71.269 0 0 1 6.812 4.593 86.803 86.803 0 0 1 6.657 5.625 99.359 99.359 0 0 1 2.187 2.125c2.166 2.15 4.31 4.444 6.406 6.906.01.01-.01.025 0 .031 4.198 4.933 8.25 10.474 12.094 16.563a172.069 172.069 0 0 1 1.907 3.094c1.26 2.092 2.507 4.23 3.718 6.437a200.554 200.554 0 0 1 3.563 6.813c1.158 2.32 2.273 4.699 3.375 7.125a227.45 227.45 0 0 1 3.219 7.406 243.772 243.772 0 0 1 3.03 7.75 254.874 254.874 0 0 1 2.845 8c.91 2.715 1.785 5.48 2.625 8.281a290.371 290.371 0 0 1 6.531 26.281c.905 4.548 1.697 9.15 2.406 13.845v.03c.235 1.555.475 3.118.688 4.688.215 1.59.402 3.176.593 4.781.381 3.19.715 6.413 1 9.656.143 1.622.289 3.241.407 4.875.118 1.635.22 3.26.312 4.907v.03c.185 3.283.324 6.612.406 9.938.124 4.985.117 9.993 0 15.063v.062a314.205 314.205 0 0 1-.406 10.25l6.25 3.031c4.212.15 8.386.328 12.531.532h.031c4.136.204 8.234.442 12.313.687h.031c16.346.983 32.273 2.245 48.062 3.407h.031c7.89.58 15.74 1.144 23.594 1.625h.031c9.82.6 19.642 1.07 29.531 1.343h.031c1.97.055 3.962.12 5.938.157 3.971.074 7.935.099 11.937.094h.03a509.882 509.882 0 0 0 18.125-.312 471.48 471.48 0 0 0 12.282-.626c4.116-.257 8.26-.558 12.437-.937 2.089-.19 4.175-.403 6.281-.625 9.691-1.762 19.605-3.38 29.656-4.969 20.102-3.178 40.782-6.212 61.5-9.844a953.272 953.272 0 0 0 15.531-2.843c15.516-2.986 30.988-6.423 46.156-10.625a421.755 421.755 0 0 0 15.094-4.5 341.095 341.095 0 0 0 22.126-7.813 306.366 306.366 0 0 0 10.812-4.5 284.107 284.107 0 0 0 7.062-3.219 276.497 276.497 0 0 0 7-3.406 260.03 260.03 0 0 0 6.906-3.625 246.407 246.407 0 0 0 10.125-5.844 234.84 234.84 0 0 0 6.625-4.156c.055-.04.21-.209.313-.312 7.242-7.759 22.558-99.326-7.813-142.56a890.541 890.541 0 0 0-17.25-23.406c-103.5 23.716-236.71 59.459-349.91 46.28 0-29.191-119.56-67.155-177.16-67.155-121.6-4.442-217.42-52.661-319.28-111.47-22.595-13.045-45.65-20.77-65.5-22.97-.019.004-.043-.002-.062 0z" fill="url(#f)" transform="translate(-858.23 -620.08)"/><path transform="translate(77.85 154.44)" d="M405.59.438a827.23 827.23 0 0 0-14.438.124c-60.065 1.108-119.49 13.936-178.66 23.72-65.027.689-136.28 19.998-162.88 22.125C5.939 49.898 3.06 109.27.268 143.845c-.609 7.54.92 2.181 1.875 15.594 3.443-62.276 23.16-71.734 46.75-60.156 39.162 19.22 52.39 100.8 65.375 164.28 11.709 2.163 35.543 2.763 67.656 12.719 65.857 20.417 159.45 56.684 225.19 84.938 3.702 4.474 6.182 14.976 15 15.187-20.782-79.454-20.583-153 42.5-155.34 49.594-1.845 102.03 92.677 95.906 202.31l6.25 3.032c67.381 2.407 125.84 12.489 193.22 5.375 77.531-14.093 168.74-19.652 238.56-65.375 7.084-5.146 23.353-98.921-7.5-142.84-77.698-109.11-107.18-111.59-226.19-114.38-43.324-28.803-96.327-55.19-150.25-81.344C562.536 9.622 478.54.37 405.58.439z" fill="url(#g)"/><g color="#000"><path transform="translate(77.85 154.44)" d="M532.25 51.375c-.567.695-1.163 1.413-1.688 2.25-.936 1.496-1.588 3.423-1.25 6.156.355 2.866 2.402 5.406 3.97 8.25 1.566 2.844 2.712 5.869 1.624 9.719l-.03.063v.093c-.068 2.007-.13 4.012-.126 6.031h.969c0-1.993.027-3.997.094-6 1.11-4.157-.152-7.598-1.75-10.5-1.623-2.944-3.523-5.47-3.813-7.812-.306-2.476.254-4.003 1.094-5.344.58-.927 1.3-1.762 2-2.656l-1.094-.25z" fill="url(#h)" style="block-progression:tb;text-indent:0;text-transform:none"/><path transform="translate(77.85 154.44)" d="M510.22 45.844c-9.163 1.033-18.388 2.053-27.719 3.094.11 7.133-2.984 10.936 0 17.969 9.598 22.62 72.906 60.28 72.906 60.28 15.267 12.167 12.85 20.692 9.563 26.626-.16 9.897-16.422 14.259-37.906 16.219l16.719 3.812c38.582 1.14 81.84.73 113.72-2.468 35.873-4.408 111.05-11.983 131.12-28.812l5-8.375v-.032c.214-4.216-2.72-8.863-9.72-14.062a203 203 0 0 0-11.124-7.719c-3.727-.095-7.334-.189-11.25-.28-7.277-4.854-14.805-9.616-22.594-14.345l-228.72-51.906z" fill="url(#i)" opacity=".77"/><path transform="matrix(1.1574 0 0 1.0988 -1069.43 -728.2)" d="M1140.4 977.57c-17.873-.194-27.214 30.966-10.219 43.562l209.38 71.094c-2.187-11.756-2.848-23.22-2.156-34l-192.31-79.906c-1.627-.497-3.173-.734-4.688-.75z" fill="url(#j)" filter="url(#k)"/><path d="M1649.5 867.27c3.577 3.221 8.717 7.797 13.469 13.219 6.421 7.327 11.868 16.005 11.062 24.156l1 .094c.854-8.652-4.788-17.497-11.281-24.906-4.219-4.814-8.75-8.968-12.219-12.094l-2.031-.47z" fill="url(#l)" style="block-progression:tb;text-indent:0;text-transform:none" transform="translate(-858.23 -620.08)"/><path transform="translate(77.85 154.44)" d="M776.19 109.47a203.274 203.274 0 0 1 11.125 7.688c45.09 33.389-77.713 45.317-126.91 51.343-48.71 4.873-123.89 3.291-168.66-.406 112.54 48.666 44.842 22.495 108.72 62.625 11.086 6.985 27.359 25.414 37.781 44.25 5.63 9 9.733 18.838 11.531 29.531 2.265 13.464 117.27 18.402 127.34 16.312 58.375-17.398 211.13-46.699 215.78-63.594.918-13.91-.996-26.62-5.125-38.219-.022-.03-.042-.063-.063-.093-72.67-100.95-103.73-106.69-211.53-109.44z" fill="url(#m)"/><path d="M1732 917.82c-20.317 16.929-96.162 24.549-132.37 28.985-14.49 1.45-31.336 2.309-49.008 2.735 44.72 20.184 93.088 44.036 148.38 74.788 3.308 1.84 6.962 2.357 10.374 1.603 64.518-10.1 97.859-19.219 125.77-23.389 2.87-.768 3.603-2.375 3.772-6.57s-78.312-66.287-106.91-78.152z" fill="#4d4d4d" filter="url(#n)" transform="translate(-858.23 -620.08)"/><path d="M792.57 247.47c3.608 3.218 8.667 7.714 13.312 12.969 6.491 7.343 12.001 16.049 11.188 24.219l1 .094c.864-8.671-4.842-17.543-11.406-24.97-4.16-4.706-8.575-8.725-12.062-11.843l-2.031-.47z" fill="#333" style="block-progression:tb;text-indent:0;text-transform:none"/><path transform="translate(77.85 154.44)" d="M405.56.406c-4.864 0-9.684.07-14.438.156-60.066 1.108-119.49 13.904-178.66 23.688-65.027.69-136.25 20.03-162.84 22.156C9.454 49.618 3.82 99.892.997 134.876c1.475-1.045 2.736-1.942 4.313-3.063 7.188-37.275 24.066-42.146 43.594-32.562.653.32 1.298.676 1.937 1.031.05 0 .094.027.094.063h.031c.024.016.037.048.063.062.737.415 1.468.853 2.187 1.313.02.013.043.019.063.03.019.013.043.02.062.032.087.056.163.13.25.188.655.428 1.298.848 1.938 1.312h.03c7.436 3.14 14.608 9.108 21.063 17.25l6.969 4.5 337.22 119.94c8.592-14.342 22.66-23.15 43.812-23.938 49.593-1.845 102 92.71 95.875 202.34l6.25 3.031c49.23 1.759 93.712 7.597 140.38 7.844l-3.5-22.906c-28.246-2.219-49.77-4.916-54.72-11.156-17.284-16.127-37.067-65.622-30.593-72l73.469 5.531-2.657-17.5c-21.41-2.735-38.485-6.613-39.344-11.719-1.798-10.693-5.9-20.532-11.53-29.53-25.022-47.25-55.845-76.306-102.53-85.845-118.68-24.247-76.208-27.355-143.94-132.22 67.821-9.12 201.12-21.297 224.34-28.344-.5-.242-1-.476-1.5-.718C562.547 9.619 478.522.335 405.562.404zM288.34 34.094c3.2-.02 6.516-.022 9.938 0 53.874-.389 82.314 10.283 130.84 120.81-109.49-33.648-342.42-119.48-140.78-120.81z" fill="url(#o)" filter="url(#p)"/><path transform="translate(77.85 154.44)" d="M236.69 83.062c-6.667 4.94-12.816 10.693-20.156 14.688-4.809 2.766-9.902 5.031-15 7.156a2436.566 2436.566 0 0 0-8.875 32.031c-.33 1.388-1.251 4.465-1.094 4.844 5.086-11.509 8.372-23.767 11.656-35.406 9.877-3.89 19.31-9.04 27.375-16 2.342-2.05 4.961-3.852 7.25-5.906-.111-.496-.583-1.38-1.156-1.406z" fill="url(#q)" filter="url(#r)" style="block-progression:tb;text-indent:0;text-transform:none"/></g><path transform="translate(77.85 154.44)" d="M272.47 138.42s226.71 92.536 178.13 70.765c-52.902-26.242-178.13-70.765-178.13-70.765z" fill="url(#s)" fill-rule="evenodd"/><g color="#000"><path d="M1368.8 928.13c-1.014.527-2.616.01-1.873 1.663l1.293 10.65c-5.295 1.758-10.565 3.61-15.876 5.312-7.503 20.48-7.728 43.178-2.084 64.117.973 3.594 2.2 7.119 3.533 10.602 2.32-.2 2.027-1.549.953-3.312-7.707-21.516-8.5-45.47-1.64-67.296.103-2.149 1.499-3.092 3.478-3.45 4.624-1.516 9.305-3.18 13.89-4.599-.622-4.554-1.086-9.13-1.675-13.687z" fill="#fff" filter="url(#t)" style="block-progression:tb;text-indent:0;text-transform:none" transform="translate(-858.23 -620.08)"/><path d="M1367.4 928.13c-.984.527-2.538.01-1.817 1.663l1.254 10.65c-5.138 1.758-10.252 3.61-15.406 5.312-7.281 20.48-7.5 43.178-2.022 64.117.944 3.594 2.135 7.119 3.428 10.602 2.253-.2 1.968-1.549.925-3.312-7.48-21.516-8.248-45.47-1.591-67.296.1-2.149 1.454-3.092 3.375-3.45 4.487-1.516 9.03-3.18 13.478-4.599-.603-4.554-1.053-9.13-1.624-13.687z" fill="url(#u)" filter="url(#v)" style="block-progression:tb;text-indent:0;text-transform:none" transform="translate(-858.23 -620.08)"/><path transform="translate(77.85 154.44)" d="M234.94 83.344c-6.665 4.943-12.82 10.689-20.156 14.688-4.809 2.766-9.901 5.031-15 7.156a2608.51 2608.51 0 0 0-8.594 31c-.413 1.724-1.454 5.114-1.375 5.875 5.15-11.655 8.184-23.128 11.656-35.406 9.877-3.89 19.342-9.04 27.406-16 2.349-1.964 4.731-3.859 7.156-5.719.198-.568-.541-1.517-1.093-1.593z" fill="#fff" filter="url(#w)" style="block-progression:tb;text-indent:0;text-transform:none"/><path d="M267.47 204.11c-5.81 1.207-14.375 3.946-14.344 11.156 2.017 5.589 9.901 5.431 14.031 9.094 3.94 2.831 12.29 4.51 11.625 10.844-2.202 3.284-7.986 2.189-11.781 2.25-14.826-2.154-28.463-9.247-42.42-14.455-21.228-8.721-43.444-19.07-66.861-17.076-10.236 1.815-19.776 8.96-23.313 18.906 4.19-6.292 10.154-12.788 17.781-14.188 7.827-1.596-.064 4.094-1.244 7.288-6.019 10.247-9.162 34.024-9.162 34.024s2.918-10.62 5.062-15.375c2.382-9.584 5.686-20.268 14.062-26.25 11.217-5.37 23.31 1.207 34.406 3.5 24.521 6.983 45.995 22.775 71.343 26.735 5.49.215 13.51-.241 15.657-6.204-1.374-6.648-10.174-6.827-14.53-10.875-4.247-2.4-12.537-5.987-9.907-12.219 2.457-3.56 9.9-2.153 10.812-7.343-.412-.112-.813.1-1.219.187z" fill="#fff" style="block-progression:tb;text-indent:0;text-transform:none"/><path transform="translate(77.85 154.44)" d="M299.81 38.375c-27.648.175-59.47 3.006-80.531 8.281-14.284 3.578-19.529 9.237-7.531 16.031 68.316 49.302 145.07 69.875 222.72 95-47.922-109.15-76.02-119.7-129.22-119.31a415.834 415.834 0 0 0-5.438 0z" fill="url(#x)"/><path d="M111.944 249.44c-5.573-.222-10.674 1.511-15.125 5.687.036 21.974 33.32 137.63 34.375 144.88l-12.438 29.875c1.15 7.907 24.869 10.856 32.781 9.75l52.312-7.312c6.213-.868 9.082-5.613 10.906-11.375-9.687-1.309-17.441-2.005-22.656-2.969-12.985-63.485-26.181-145.06-65.344-164.28-5.16-2.533-10.152-4.064-14.812-4.25z"/><path transform="matrix(1.0764 0 0 1.03 28.67 149.44)" d="M474.04 169.69c-17.073 1.54 16.157 9.145 20.96 10.839 15.887 5.634 44.403 16.885 58.781 27.875.726.187 1.472.446 2.25.75 33.809 10.723 32.725 15.278 56.884 30.375 7.077 4.423 10.466 16.15 19.935 19.041 1.032.395 7.21-.554 7.4-.948 2.477-5.166-10.568-44.293-55.161-67.588-29.264-15.288-85.048-17.732-111.05-20.345z" fill="url(#y)" filter="url(#z)"/><path d="M542.47 375.48c-43.594 1.622-57.139 37.262-54.5 85.344l90.312 82.75c5.892 5.396-13.087 8.76-11.687 16.625l-23.441 24.188c1.4 7.866 32.079 15.125 39.952 13.77l57.113-7.959c5.257-.904 8.79-4.452 10.5-9.093-2.037-.087-4.072-.177-6.125-.25l-6.25-3.032c6.127-109.64-46.282-204.19-95.875-202.34z"/><path transform="translate(77.85 154.44)" d="M465.19 232.66c-2.28.038-4.543.254-6.813.656-36.306 6.436-56.436 58.056-44.969 115.28s50.194 98.373 86.5 91.938 56.436-58.025 44.97-115.25c-10.751-53.649-45.476-93.195-79.688-92.625z" fill="url(#A)" filter="url(#B)"/><path transform="translate(-598.34 -487.76) scale(.86188)" d="M1841.5 910.57l-1.12.862c-7.37 5.567-5.62 31.7 1.637 36.454 44.405 29.082 62.814 41.962 85.604 57.539-1.749-3.78-3.72-7.349-6.004-10.6-31.752-44.591-54.76-69.773-80.117-84.254z" fill="url(#C)" filter="url(#D)"/><path d="M990.97 295.94c-7.013 2.263-6.256 28.523-.719 33.125 15.078 12.375 71.562 49.919 69.188 46.312-5.977-13.262-48.64-79.981-68.469-79.438z" fill="url(#E)" filter="url(#F)"/><path d="M1471.4 977.65c-8.379.29-10.872 10.83-2.784 23.732l46.404 37.72c6.576 5.344 43.023 36.36 51.144 38.78 7.133 2.126 18.049 2.368 21.147-1.558-4.857-26.086-33.138-61.834-50.05-72.49-25.504-16.069-25.8-15.512-60.624-25.224-1.924-.7-3.685-1.015-5.237-.961z" fill="url(#G)" filter="url(#H)" transform="translate(-858.23 -620.08)"/><path d="M1903.6 1057.8c-3.722.053-7.186.465-9.594 1.125l-160.94 44.125c-7.705 2.113-13.042 9.015-13.312 17-.243 7.162.225 18.323 4.594 24.562 4.583 6.545 13.686 12.813 21.656 12.25 48.77-3.447 107.56-19.95 150.59-38.062 7.364-3.1 20.064-16.701 22.937-24.156 4.195-10.883 9.578-21.352 3.969-31.344-2.278-4.058-11.718-5.616-19.906-5.5z" fill="url(#I)" filter="url(#J)" transform="translate(-858.23 -620.08)"/><path transform="translate(-849.446 -614.744) scale(.99518)" d="M1906 1057.8c.363.011.73.013 1.094.031-.367-.016-.728-.022-1.094-.031zm2.875.156c.526.042 1.042.07 1.563.125-.521-.055-1.036-.085-1.563-.125zm1.75.156c1.253 8.079-2.798 16.432-6.125 25.063-2.873 7.455-15.574 21.057-22.937 24.156-43.032 18.112-101.82 34.615-150.59 38.062-2.206.156-4.49-.216-6.75-.968.034.05.059.107.094.156 4.583 6.544 13.686 12.813 21.656 12.25 48.77-3.447 107.56-19.95 150.59-38.062 7.364-3.1 20.064-16.701 22.937-24.156 4.195-10.883 9.578-21.352 3.969-31.344-1.632-2.908-6.953-4.512-12.844-5.156zm-186.41 86.313zm-4.313-15.125z" fill="url(#K)"/><path transform="translate(77.85 154.44)" d="M607.41 324.69c-7.487 7.376 15.386 64.631 35.375 83.281 5.97 7.526 75.343 13.583 110.12 16.219 172.09-24.125 243-67.344 243-67.344s-32.341 16.309-83.17 27.518c-29.707 6.55-101.13 33.659-157.39 28.92-94.394-7.952-74.24-20.267-44.875-80.844z" fill="url(#L)" filter="url(#M)"/><path transform="translate(77.85 154.44)" d="M618.31 327.97c-3.307 17.949 8.504 34.224 16 49.781 6.733 15.563 21.701 23.234 39.625 26.281 63.025 10.715 82.202 8.75 82.202 8.75s6.2-8.023 6.002-15.992c-.566-23.867.506-59.128-12.204-59.32-43.962 1.382-87.755-6.336-131.62-9.5z" fill="url(#N)"/><path transform="translate(77.85 154.44)" d="M1005.3 268.03c-.545.077-9.965 54.251-12.094 53.594-2.372 7.63 8.293 4.781 11.062 4.781 2.77 0 2.844-3.917 2.844-11.906v-20.812c0-7.99-1.868-24.786-1.781-25.5 0-.114-.014-.159-.031-.156z" fill="url(#O)" filter="url(#P)"/><path transform="translate(77.85 154.44)" d="M538.38 206.03c-7.9.274-10.25 10.211-2.625 22.375l43.75 35.562c6.2 5.039 40.562 34.28 48.219 36.562 6.725 2.004 17.017 2.233 19.938-1.469-4.579-24.594-31.242-58.298-47.188-68.344-24.046-15.15-24.324-14.625-57.156-23.78-1.814-.66-3.475-.958-4.937-.907z" fill="url(#Q)" filter="url(#R)"/><path d="M543.27 409.52a35.548 35.548 0 0 0-5.563.562c-14.736 2.612-26.04 14.341-32.438 30.75-6.398 16.41-8.053 37.592-3.593 59.844 4.46 22.251 14.202 41.428 26.5 54.5 12.298 13.072 27.295 20.112 42.03 17.5 14.737-2.61 26.064-14.372 32.47-30.78 6.405-16.41 8.054-37.562 3.593-59.814-4.181-20.86-13-39.012-24.219-51.969-7.827-9.04-16.882-15.594-26.344-18.656-.048-.223-.068-.473-.125-.687a43.142 43.142 0 0 0-7.125-.938h-.062c-1.714-.215-3.4-.34-5.125-.312z"/><path transform="translate(77.85 154.44)" d="M795.72 144.06c-20.498 17.078-97.029 24.775-133.56 29.25-14.619 1.462-31.609 2.32-49.438 2.75 45.117 20.362 93.911 44.446 149.69 75.469 3.337 1.856 7.027 2.354 10.469 1.594 65.091-10.19 98.714-19.387 126.88-23.594 2.895-.776 3.641-2.393 3.813-6.625.17-4.233-78.991-66.874-107.84-78.844z" fill="url(#S)" filter="url(#T)" stroke="#fff" stroke-linecap="round" stroke-linejoin="round" stroke-width="1.015"/><path d="M1598.3 949.68c-.316.01-.62.069-.938.156-3.593 2.556 2.507 5.389 4.532 6.625 25.506 14.205 51.792 27.817 78.78 39.094 2.826 1.804 5.524-2.235 2.407-3.812-25.037-15.036-51.655-27.785-78.312-39.906-2.072-.587-4.256-2.23-6.469-2.156z" fill="url(#U)" filter="url(#V)" transform="translate(-858.23 -620.08)"/></g><path d="M1341.5 774.53c-4.864.005-9.684.037-14.437.125-60.065 1.108-119.49 13.935-178.66 23.719-65.027.69-136.28 19.999-162.88 22.125-43.673 3.492-46.552 62.864-49.344 97.438-.609 7.54.92 2.182 1.875 15.594 1.22-22.084 16.356-57.45 21.119-67.669 4.264-30.635 23.53-41.306 55.31-43.847 26.595-2.126 71.173-18.487 136.2-19.176 59.163-9.784 124.31-27.075 184.37-28.183 4.529-.083 9.12-.117 13.75-.125-2.455-.018-4.88-.002-7.313 0z" fill="url(#W)" filter="url(#X)" transform="translate(-858.23 -620.08)"/><g color="#000"><path d="M1219.7 804.57c-31.498.195-67.726 3.34-91.719 9.222-16.272 3.99-22.246 10.282-8.578 17.86 77.826 54.976 165.25 77.934 253.71 105.95-54.594-121.71-86.588-133.46-147.19-133.03a488.84 488.84 0 0 0-6.222 0z" fill="url(#Y)" filter="url(#Z)" transform="translate(-858.23 -620.08)"/><path d="M1229.1 809.33c-27.668.175-59.496 3.022-80.572 8.301-14.294 3.58-19.544 9.224-7.538 16.023 68.363 49.336 145.15 69.926 222.85 95.07-47.956-109.22-76.044-119.78-129.28-119.39a421.522 421.522 0 0 0-5.463 0z" fill="url(#aa)" transform="translate(-858.23 -620.08)"/><path transform="translate(77.85 154.44)" d="M39.281 83.75c-1.486.007-2.956.15-4.438.438-23.697 4.596-37.255 44.267-30.28 88.624C1.076 133.102 15.02 99.46 38 95.25c15.32-2.806 31.102 8.156 42.75 27.189C70.56 98.953 54.931 83.692 39.28 83.75z" fill="#fff" filter="url(#ab)"/><path transform="translate(77.85 154.44)" d="M35.5 87.125a25.14 25.14 0 0 0-4.156.375c-22.11 3.79-34.757 36.488-28.25 73.062-3.252-32.742 9.778-60.466 31.219-63.938 14.294-2.314 29.007 6.682 39.875 22.375C64.68 99.634 50.103 87.076 35.5 87.124z" fill="#e6e6e6" filter="url(#ac)"/><path d="M116.256 244.346a21.957 21.957 0 0 0-4.562.5c-24.47 5.25-38.483 50.558-31.281 101.22-3.6-45.353 10.803-83.786 34.53-88.594 8.405-1.703 16.946 1.027 24.907 7.219l.03.031c28.55 29.67 40.054 98.516 51.345 153.72 11.709 2.164 35.543 2.763 67.656 12.719 65.857 20.417 159.45 56.684 225.19 84.938 3.701 4.475 6.181 14.977 15 15.188a520.153 520.153 0 0 1-1.594-6.281c-2.086-3.144-3.61-6.734-5.406-8.906-65.737-28.253-159.33-64.521-225.19-84.938-32.113-9.956-55.948-10.555-67.656-12.72-11.854-57.956-23.913-130.97-55.72-157.88-8.324-10.32-17.788-16.257-27.25-16.218z"/><path transform="translate(77.85 154.44)" d="M43.5 100.75a27.258 27.258 0 0 0-5.094.5C11.334 106.5-4.154 151.839 3.812 202.5c7.968 50.661 36.397 87.468 63.47 82.219 27.071-5.25 42.56-50.589 34.593-101.25-7.47-47.495-32.919-82.814-58.375-82.719z" fill="url(#ad)"/></g><g color="#000"><path d="M129.79 284.9c5.74 2.398 11.435 7.356 16.448 14.425 3.426 4.83 6.498 10.608 9.09 17.123-4.618 6.012-10.353 14.197-19.029 6.186-11.344-10.473-6.006-27.832-6.509-37.734zM113.08 285.73c.35 9.645 10.326 25.915.616 40.373-6.881 10.246-13.808 4.274-19.292-.147.63-7.16 1.963-13.767 3.929-19.527 3.38-9.901 8.514-17.148 14.748-20.7zM161.37 337.56c.205 1.106.41 2.215.586 3.342 2.658 16.903 1.613 32.96-2.199 45.445-2.887-7.188-16.37-10.747-13.81-31.02 1.94-15.356 9.569-16.406 15.422-17.768zM95.22 347.71c5.254-.183 11.16.967 15.012 12.93 4.211 13.081-.387 20.587-4.134 26.564-4.863-9.241-8.658-20.62-10.643-33.248a123.486 123.486 0 0 1-.792-6.216c.19-.01.366-.023.557-.029zM131.52 377.85c14.232-.078 12.756 27.767 20.26 24.628-3.73 4.774-8.167 7.838-13.106 8.796-7.185 1.394-14.72-1.793-21.579-8.65 1.726-8.21 1.47-23.003 12.754-24.657a11.898 11.898 0 0 1 1.671-.118z"/></g><g color="#000"><path d="M1139.6 982.31c-17.873-.194-63.642 22.395-46.647 34.991l247.18 80.134c-.114-.49-.234-.976-.344-1.469-2.52-11.375-3.594-22.509-3.406-33.094l-192.09-79.812c-1.627-.497-3.173-.733-4.687-.75z" fill="url(#ae)" filter="url(#af)" transform="translate(-858.23 -620.08)"/><path d="M1140.4 979.59c-17.873-.194-27.214 30.966-10.219 43.562l209.38 71.094c-2.187-11.756-2.848-23.22-2.156-34l-192.31-79.906c-1.627-.497-3.173-.734-4.688-.75z" fill="url(#ag)" filter="url(#k)" transform="translate(-858.23 -620.08)"/><path d="M1874.2 941.83a21.319 21.319 0 0 0-1.589 8.14c0 11.618 5.062 15.338 13.322 23.196 9.81 9.333 19.05 14.035 25.152 16.206-.789-1.361-1.607-2.7-2.493-3.96-12.798-17.973-23.932-32.226-34.391-43.582z" fill="url(#ah)" filter="url(#ai)" transform="translate(-858.23 -620.08)"/><path transform="translate(-660.22 -518.89) scale(.8952)" d="M1877.8 951.12c6.293.496 12.101 4.548 14.975 10.132 2.902 4.976 5.981 9.917 7.972 15.346.948 1.483.405 4.273-1.829 3.278-3.567-1.373-6.695-3.654-9.839-5.786-2.89-2.079-5.792-4.165-8.57-6.378-1.139-.622-2.63-1.447-2.397-2.968l-.312-13.623z" fill="url(#aj)" filter="url(#ak)"/><path d="M979.59 895.02c-1.333.005-2.679.14-4.008.398-21.267 4.126-33.43 39.77-27.17 79.587s28.575 68.744 49.842 64.618c21.267-4.126 33.429-39.771 27.17-79.587-5.868-37.328-25.836-65.091-45.834-65.016z" fill="url(#al)" transform="translate(-858.23 -620.08)"/><path transform="matrix(.97419 0 0 1.0543 -817.305 -678.674)" d="M1495.2 998.84c-7.183-.184-4.361 12.473 2.125 24.844l18.219 14.812c6.2 5.039 40.562 34.28 48.219 36.562 6.119 1.824 15.183 2.177 18.969-.563-2.565-3.28-9.722-8.817-18.687-14.437-2.958-1.855-15.096 1.375-18.094-1.563-2.673-2.62-4.813-5.498-6.625-8.5-2.3-2.59-4.963-5.892-8.094-10.125l-7.687-7.906c-2.38-3.754-.542-8.37 2.281-10.375-.371-.616-.725-1.24-1.125-1.844-6.816-10.286-20.526-18.85-26.469-20.25-1.17-.421-2.163-.634-3.031-.656z" fill="url(#am)" filter="url(#an)"/><path transform="translate(77.85 154.44)" d="M43.969 124.94c-1.25.005-2.503.164-3.75.406-1.35.262-2.669.663-3.938 1.188-.047.073-.08.175-.124.25-8.586 3.475-15.101 12.333-19.094 24.03-4.572 13.394-5.924 30.728-3.094 49l.031.282c2.89 18.38 9.454 34.262 17.906 45.219 8.452 10.957 19.018 17.145 29.594 15.094 10.576-2.052 18.53-11.786 23.125-25.25 4.596-13.464 5.952-30.902 3.062-49.281-2.708-17.231-8.684-32.25-16.375-43.094-5.876-8.286-12.8-14.183-20.188-16.5-.012-.028-.018-.066-.03-.094-2.36-.8-4.74-1.259-7.126-1.25zm7.969 5.531c5.74 2.399 11.424 7.338 16.438 14.406 3.426 4.83 6.502 10.611 9.094 17.125-4.618 6.012-10.355 14.198-19.031 6.188-11.344-10.473-5.998-27.817-6.5-37.72zm-16.72.813c.35 9.645 10.336 25.917.626 40.375-6.881 10.246-13.797 4.264-19.281-.157.63-7.16 1.94-13.77 3.906-19.53 3.38-9.902 8.516-17.137 14.75-20.689zM83.5 183.128c.205 1.106.385 2.217.562 3.344 2.657 16.902 1.624 32.951-2.187 45.437-2.887-7.188-16.373-10.758-13.812-31.03 1.94-15.357 9.584-16.39 15.438-17.75zm-66.125 10.125c5.253-.184 11.149.974 15 12.938 4.211 13.08-.378 20.586-4.125 26.562-4.863-9.242-8.671-20.622-10.656-33.25-.328-2.084-.565-4.166-.781-6.22.19-.01.37-.024.562-.03zm36.312 30.156c14.232-.078 12.746 27.763 20.25 24.625-3.73 4.773-8.187 7.854-13.125 8.812-7.185 1.394-14.703-1.8-21.562-8.656 1.726-8.21 1.465-23.003 12.75-24.656a12.14 12.14 0 0 1 1.687-.125z" fill="url(#ao)" stroke="url(#ap)" stroke-width="3"/><path d="M1400.8 1024.3c-1.968.034-3.96.25-5.927.6-15.702 2.781-27.747 15.276-34.565 32.756-6.818 17.481-8.583 40.046-3.83 63.75 4.754 23.704 15.134 44.132 28.238 58.057 13.104 13.925 29.085 21.424 44.788 18.642 15.702-2.782 27.772-15.31 34.598-32.79 6.826-17.48 8.583-40.012 3.83-63.716-4.456-22.222-13.852-41.558-25.807-55.36-8.34-9.63-17.99-16.612-28.071-19.875-.052-.238-.072-.505-.134-.732a45.99 45.99 0 0 0-7.592-.999h-.066c-1.826-.23-3.624-.363-5.461-.333zm-10.556 6.092c.313 12.997 15.048 35.157.832 54.828-11.709 16.204-23.947 2.205-32.367-3.13v-.032c.946-8.341 2.797-16.072 5.461-22.903 5.615-14.398 14.653-24.686 26.074-28.762zm24.309.566c8.592 3.205 16.949 9.397 24.408 18.01 5.257 6.07 10.066 13.312 14.119 21.472-6.958 8.113-15.562 21.74-29.104 10.12-15.94-13.678-9.226-36.038-9.424-49.601zm48.784 68.976c.18.813.368 1.641.533 2.463 4.613 23.008 2.842 44.88-3.63 61.452a72.968 72.968 0 0 1-1.765 4.095c-2.93-10.622-24.428-14.642-20.546-43.21 3.165-23.284 16.748-22.298 25.407-24.801zm-97.634 14.48c7.249.024 15.096 2.322 20.346 17.478 6.042 17.44-.36 27.532-5.76 35.553-8.979-12.512-16.13-28.637-19.78-46.838-.397-1.979-.697-3.933-1-5.892 1.52-.09 3.12-.213 4.762-.267.477-.017.949-.035 1.432-.033zm51.315 40.714c17.912-.09 18.709 28.124 25.674 32.957-4.2 3.009-8.84 5.065-13.886 5.959-10.7 1.896-21.817-1.594-32.034-9.288 1.883-11.341 3.172-27.468 17.815-29.461a18.645 18.645 0 0 1 2.43-.166z" fill="url(#aq)" transform="translate(-858.23 -620.08)"/><path d="M543.27 409.52a35.548 35.548 0 0 0-5.563.562c-14.736 2.612-26.04 14.341-32.438 30.75-6.398 16.41-8.053 37.592-3.593 59.844 4.46 22.251 14.202 41.428 26.5 54.5 12.298 13.072 27.295 20.112 42.03 17.5 14.737-2.61 26.064-14.372 32.47-30.78 6.405-16.41 8.054-37.562 3.593-59.814-4.181-20.86-13-39.012-24.219-51.969-7.827-9.04-16.882-15.594-26.344-18.656-.048-.223-.068-.473-.125-.687a43.142 43.142 0 0 0-7.125-.938h-.062c-1.714-.215-3.4-.34-5.125-.312z"/><path transform="translate(77.85 154.44)" d="M460.03 256.44c-4.066.653-16.004 18.695-12.219 11.719-18.605 12.39-27.678 44.398-20.688 79.281 8.38 41.813 36.66 71.89 63.188 67.188 11.04-1.957 20.022-9.634 26.156-20.938-3.696 2.46-11.791 3.658-16.188 4.438-27.032 2.682-45.036-14.596-51.938-70.844-1.887-15.384 12.118-57.947 12.969-68 .188-2.224-.343-2.995-1.281-2.844z" fill="url(#ar)"/><path transform="translate(77.85 154.44)" d="M435.84 277.97c-1.814 2.986-3.426 6.256-4.813 9.813-2.308 5.921-3.967 12.57-4.906 19.719.318.442.644.872.969 1.312.708.958 1.429 1.916 2.156 2.844 7.615 5.657 17.503 13.783 27.031.594a31.71 31.71 0 0 0 1.906-3c-6.52-7.132-13.327-16.272-20.5-27.688-.636-1.013-1.24-2.239-1.843-3.594z" fill="url(#as)"/><path transform="translate(77.85 154.44)" d="M465.41 255.06a35.548 35.548 0 0 0-5.563.563c-14.735 2.611-26.04 14.34-32.437 30.75-6.398 16.41-8.054 37.592-3.594 59.844 4.46 22.25 14.202 41.428 26.5 54.5 12.298 13.072 27.295 20.112 42.03 17.5 14.737-2.612 26.064-14.372 32.47-30.781 6.406-16.41 8.054-37.561 3.594-59.812-4.182-20.862-13-39.013-24.22-51.97-7.827-9.04-16.881-15.594-26.343-18.656-.048-.223-.068-.473-.125-.687a43.153 43.153 0 0 0-7.125-.938h-.062c-1.715-.215-3.402-.34-5.126-.312zm-9.906 5.719c.293 12.2 14.122 33.003.781 51.469-10.989 15.21-22.473 2.07-30.375-2.938v-.03c.887-7.83 2.625-15.089 5.125-21.5 5.27-13.517 13.751-23.175 24.469-27zm22.812.531c8.063 3.01 15.906 8.821 22.906 16.906 4.934 5.698 9.447 12.497 13.25 20.156-6.53 7.617-14.604 20.408-27.312 9.5-14.96-12.84-8.658-33.83-8.844-46.562zm45.78 64.75c.169.764.346 1.541.5 2.313 4.33 21.598 2.668 42.13-3.405 57.688a68.42 68.42 0 0 1-1.657 3.843c-2.75-9.971-22.925-13.745-19.28-40.562 2.97-21.857 15.716-20.932 23.843-23.28zm-91.624 13.594c6.802.021 14.167 2.179 19.094 16.406 5.67 16.372-.338 25.845-5.406 33.375-8.426-11.746-15.137-26.883-18.562-43.969-.373-1.857-.653-3.692-.938-5.531 1.425-.085 2.927-.2 4.469-.25.447-.015.89-.033 1.344-.031zm48.156 38.219c16.81-.085 17.558 26.401 24.094 30.938-3.942 2.824-8.297 4.755-13.031 5.594-10.042 1.78-20.474-1.496-30.062-8.719 1.767-10.646 2.977-25.785 16.719-27.656.793-.108 1.55-.153 2.281-.156z" fill="url(#at)" stroke="url(#au)" stroke-linecap="round" stroke-linejoin="round" stroke-width="3"/><path transform="translate(77.85 154.44)" d="M49.375 176.66c-.269.001-.545.004-.813.063-4.284.93-6.73 8.99-5.468 17.968 1.26 8.98 5.746 15.493 10.03 14.562 4.286-.93 6.73-8.958 5.47-17.937-1.183-8.418-5.19-14.673-9.22-14.656z" fill="url(#av)" stroke="url(#aw)" stroke-width="1.337"/><path transform="translate(77.85 154.44)" d="M457.81 206.94c-2.49.036-4.96.267-7.438.656-21.152 5.837-46.45 42.067-44.062 100.53.574 14.036 5.973 35.548 9.188 48.906-.162-.693-.31-1.37-.469-2.062a140.803 140.803 0 0 0 3.813 7.687c-17.017-74.866-13.042-140.82 46.656-143.06 23.057-.865 46.717 19.113 64.938 51.781.18.323.352.644.531.969.055.103.101.21.156.313 6.25 11.735 11.796 24.944 16.344 39.312-.09-.792-.206-1.58-.312-2.375.8 2.364 1.595 4.756 2.344 7.187-.068-.603-.143-1.207-.22-1.812 10.023 32.245 15.322 70.275 13.126 110.28l6.25 3.093c51.245 1.864 97.322 8.21 146.09 7.97-45.836-.429-89.664-6.208-138.09-7.97l-6.25-3.093c3.961-72.17-16.57-137.89-44.97-174.84-17.484-26.823-42.655-43.838-67.624-43.47z" fill="url(#ax)" filter="url(#ay)"/><path d="M1057.2 1038.6c13.083 1.6 33.691 3.478 59.969 11.625 65.857 20.417 159.45 56.684 225.19 84.938 3.702 4.475 6.182 14.977 15 15.188-.066-.25-.128-.5-.187-.75-2.349-6.146-4.351-12.609-6-19.312-.27-.4-.533-.787-.813-1.125-65.737-28.253-159.33-64.521-225.19-84.938-32.113-9.956-55.948-10.555-67.656-12.719-.364-.697-.18 5.694-.313 7.094z" fill="#4d4d4d" filter="url(#az)" transform="translate(-858.23 -620.08)"/><path transform="translate(77.85 154.44)" d="M168.31 205.41c-5.091.038-10.619.347-15.219 2.813-3.78 3.189.011 6.925.438 10.28 1.276 5.643 2.407 11.484 1.593 17.376-.939 4.591-3.956 8.679-6.78 12.656-.06 3.254 5.937 1.828 8.437 2.843 13.299 1.786 26.608 3.558 39.906 5.344 2.723-.71 3.412-3.623 5.843-4.719 7.58-1.894 12.816-8.663 13.22-15.219.48-6.396-.031-12.777-1.126-19-.889-3.91-2.18-8.165-5.718-10.75-3.267-1.507-7.302-.666-10.938-.968-9.9-.112-19.803-.191-29.656-.657z" fill="url(#aA)"/><path d="M1086.2 959.07c-10.876.237-18.257 7.882-20.344 20.811-1.659 6.725 2.672 19.071 8.697 25.857 13.498 15.205 55.025 26 55.025 26s-1.896-21.452-.623-30.26c2.682-17.764 21.796-20.18 12.902-23.483l-49.281-18.296c-2.243-.478-4.36-.673-6.375-.629z" fill="url(#aB)" opacity=".983" transform="translate(-858.23 -620.08)"/><path d="M740.57 329.51c-.43.566 18.066 12.268 41.312 26.125s42.446 24.628 42.875 24.062c.43-.566-18.066-12.237-41.312-26.094-23.246-13.857-42.446-24.66-42.875-24.094z" fill="#fff"/><path d="M1142 931.16l-.152 7.475 24.946 8.66.152-7.475-24.946-8.66z" fill="url(#aC)" stroke="url(#aD)" stroke-width="3" transform="translate(-858.23 -620.08)"/><path transform="translate(77.85 154.44)" d="M208.66 158.44l-.125 5.813 19.375 6.718.125-5.812-19.375-6.719z" fill="url(#aE)" stroke="url(#aF)" stroke-linecap="round" stroke-linejoin="round"/></g><path transform="translate(77.85 154.44)" d="M272.47 138.42s226.71 92.536 178.13 70.765c-52.902-26.242-178.13-70.765-178.13-70.765z" fill="url(#s)" fill-rule="evenodd" filter="url(#aG)"/><g color="#000"><path transform="translate(77.85 154.44)" d="M458.69 208.09c-18.471 2.038-30.925 16.291-38.438 32.5 15.801-25.887 55.622-30.182 77.469-9.531 26.483 22.008 40.302 55.134 51 86.969 9.899 34.147 13.595 69.997 11.688 105.47 10.707 6.158 23.687 2.414 35.375 4.562 38.964 2.506 77.879 6.714 116.97 6.5-46.909-.893-93.726-5.708-140.47-8.75-8.124-11.752-.788-30.33-4.406-44.844-3.737-47.522-16.666-96.177-46.312-134.31-15.97-18.109-36.342-35.867-61.281-38.5l-1.594-.062zm-38.438 32.5c-.233.382-.465.765-.688 1.156-10.66 18.758-13.129 37.775-12.062 58.938-.285-15.84 1.237-31.74 6.594-42.594 1.468-5.773 3.497-11.762 6.156-17.5zm-12.75 60.094c.257 14.273 1.987 28.465 3.656 38.906-.14-1.78-.168-3.367.094-4.562-1.77-12.176-3.206-23.537-3.75-34.344zm3.656 38.906c.33 4.193 1.473 9.323 2.344 12.719-.634-2.856-1.469-7.244-2.344-12.719zm2.344 12.719c.497 2.24.89 3.588 1 3.625 0 0-.453-1.493-1-3.625z" fill="url(#aH)" filter="url(#aI)"/><path transform="translate(77.85 154.44)" d="M472.38 316.25a9.377 9.377 0 0 0-1.344.125c-7.201 1.277-11.18 11.524-8.906 22.875 2.275 11.352 9.954 19.495 17.156 18.219 7.202-1.277 11.181-11.492 8.906-22.844-2.132-10.642-9.026-18.488-15.812-18.375z" fill="url(#aJ)" stroke="url(#aK)"/><path d="M375.27 204.26c-7.22.032-12.852.57-14.312 2.031-7.905 7.905-7.969 32.594-7.969 32.594l2.531 15.125c43.242 20.071 88.693 33.595 134.59 48.281-1.958-3.616-5.185-8.103-9.937-13.656l-60.625-57.094s17.877-11.735 16-18.438-10.307-3.622-16.5-5.281c-4.258-1.14-27.898-3.632-43.781-3.563z" fill="#333"/><path d="M399.67 208.54c-9.86.083-18.55.975-21.281 3.062-7.284 5.566-7.969 32.594-7.969 32.594l2.969 17.72c40.572 17.051 82.825 29.388 125.38 43.155a798.37 798.37 0 0 0-7.687-16.969c-14.282-12.78-54.125-48.629-54.125-51.25 0-3.164.615-19.587-.5-23.75-.698-2.602-20.35-4.7-36.781-4.562z" fill="gray"/><path d="M1425.4 846.86l54.576 56.109 22.575 27.083 57.505-42.173c-42.168-19.697-85.751-36.262-134.66-41.019z" fill="url(#aL)" transform="translate(-858.23 -620.08)"/><path transform="translate(77.85 154.44)" d="M489.84 47.688c-34.797 3.91-69.833 7.847-95.906 11.344 17.841 26.904 32.367 47.32 60.531 99.062 3.085 5.423 86.035 10.755 155.94 9.156 3.233-4.54-3.835-12.436-26.312-25.406l-94.719-74.188s-.352-10.134.469-19.969z" fill="url(#aM)"/></g><path transform="translate(77.85 154.44)" d="M531.91 51.375c-.567.695-1.163 1.413-1.688 2.25-.936 1.496-1.588 3.423-1.25 6.156.355 2.866 2.402 5.406 3.97 8.25 1.566 2.844 2.712 5.869 1.624 9.719l-.03.063v.093c-.068 2.007-.13 4.012-.126 6.031h.969c0-1.993.027-3.997.094-6 1.11-4.157-.152-7.598-1.75-10.5-1.623-2.944-3.523-5.47-3.813-7.812-.306-2.476.254-4.003 1.094-5.344.58-.927 1.3-1.762 2-2.656l-1.094-.25z" color="#000" fill="url(#aN)" style="block-progression:tb;text-indent:0;text-transform:none"/><g color="#000"><path transform="translate(77.85 154.44)" d="M598.88 84.938c-13.313.3-27.804 8.797-37.25 23.281-6.626 10.16-9.535 21.384-8.938 31.438.03.503.077 1.003.125 1.5.048.502.09 1.005.157 1.5 1.236 9.273 5.614 17.277 13 22.094 15.97 10.415 39.902 1.99 53.469-18.812 7.236-11.095 10.052-23.474 8.687-34.188a38.625 38.625 0 0 0-.25-1.75 37.213 37.213 0 0 0-.687-3.125c-.045-.17-.078-.332-.125-.5-.097-.347-.206-.69-.313-1.031-.161-.52-.347-1.025-.531-1.531-.178-.49-.363-.961-.563-1.438v-.031c0-.013-.026-.019-.03-.031-.202-.48-.402-.94-.626-1.407-2.239-4.67-5.544-8.655-9.906-11.5-4.492-2.929-9.593-4.375-14.938-4.468a32 32 0 0 0-1.281 0zm-.5 6.688c4.932-.176 9.693 1 13.812 3.687 3.363 2.193 5.938 5.2 7.781 8.719-4.54 4.514-9.547 8.722-15.062 12.625-4.015-.601-9.233.49-14.375 3.344-5.115 2.838-9.061 6.817-11.094 10.75-5.774 2.46-11.932 4.666-18.5 6.625-.751-8.486 1.584-18.078 7.219-26.72 7.655-11.736 19.369-18.645 30.219-19.03zm24.812 24.03c.6 8.343-1.776 17.683-7.281 26.125-11.134 17.072-30.881 23.94-44.062 15.344-3.452-2.25-6.09-5.329-7.938-8.968 6.183-2.793 11.096-4.242 16.594-6.313 3.872 3.038 11.504 2.594 18.938-1.531 7.598-4.216 12.583-10.944 12.594-16.312a362.69 362.69 0 0 0 11.156-8.344z" fill="url(#aO)"/><path transform="translate(77.85 154.44)" d="M294.19 38.375c-26.012.164-55.935 2.818-75.75 7.781-13.439 3.366-18.35 8.701-7.063 15.094 64.273 46.384 136.47 65.737 209.53 89.375-45.086-102.69-71.51-112.61-121.56-112.25a397.397 397.397 0 0 0-5.156 0z" fill="url(#aP)" opacity=".9"/><path transform="translate(77.85 154.44)" d="M272.41 38.344c-1.392.085-2.768.153-4.156.25l-30.281 41.375c.914.548 1.833 1.085 2.75 1.625l31.688-43.25z" fill="url(#aQ)"/><path d="M1206.5 813.11c-1.351.083-2.712.164-4.06.258l-29.388 40.15c.887.532 1.785 1.054 2.674 1.579l30.773-41.987z" fill="url(#aR)" style="block-progression:tb;text-indent:0;text-transform:none" transform="translate(-858.23 -620.08)"/><path transform="translate(77.85 154.44)" d="M615.53 30.781c-23.156 7.092-156.06 19.352-223.69 28.531 18.839 29.508 33.357 50.027 62.625 105.59 3.869 7.029 133.42 13.968 205.22 6.719 49.051-6.065 171.49-18.084 126.53-51.688-3.732-2.79-7.455-5.32-11.156-7.719-54.808-29.514-109.81-57.068-159.53-81.438z" fill="url(#aS)" opacity=".9" stroke="url(#aT)" stroke-linecap="round" stroke-linejoin="round"/><path d="M1436.4 946.88c110.96 47.979 47.242 20.64 99.106 60.709 10.929 6.886 26.975 25.055 37.25 43.625 5.551 8.873 9.602 18.583 11.375 29.125 2.233 13.274 115.6 18.154 125.53 16.094 57.552-17.153 209.42-43.174 214-59.83-30.474 17.204-158.53 39.247-210.5 54.737-10.074 2.09-125.08-2.849-127.34-16.312-1.799-10.693-5.9-20.532-11.531-29.531-10.422-18.836-26.696-37.266-37.781-44.25-59.714-37.514-4.484-17.127-88.969-54.063-6.844-.403-5.232.185-11.138-.302z" fill="#e6e6e6" filter="url(#aU)" transform="translate(-858.23 -620.08)"/><path transform="translate(-1713.23 -1198.17) scale(1.5564)" d="M1528.3 1020.6c-3.975.402-7.78 6.598-4.75 11.375l7.687 7.906c36.596 49.475 13.507-21.594-1.25-19.062a3.807 3.807 0 0 0-1.687-.219z" fill="url(#aV)"/><path transform="translate(77.85 154.44)" d="M542.72 210.09c-7.23.25-9.385 9.367-2.406 20.5l40.03 32.531c5.675 4.611 37.119 31.38 44.126 33.469 6.154 1.834 15.577 2.044 18.25-1.344-4.19-22.508-28.595-53.369-43.188-62.562-22.006-13.865-22.265-13.37-52.312-21.75-1.66-.603-3.161-.89-4.5-.844z" fill="url(#aW)" filter="url(#R)"/><path d="M1903.6 1057.8c-3.707.053-7.157.465-9.556 1.125l-160.3 44.125c-7.675 2.113-12.99 9.015-13.26 17-.24 7.106.225 18.14 4.482 24.406 2.252.752 4.526 1.125 6.724.969 48.577-3.448 107.14-19.95 150-38.062 7.334-3.1 19.985-16.701 22.846-24.156 3.313-8.63 7.349-16.984 6.1-25.063a57.683 57.683 0 0 0-7.034-.344z" fill="url(#aX)" transform="translate(-858.23 -620.08)"/><path d="M1143.2 978.14c-1.53 2.579-4.5 3.885-6.55 6.026-5.304 4.591-8.518 11.414-8.525 18.445-.315 8.56.265 17.124.935 25.654-14.552-4.088-29.006-9.058-42.175-16.577-3.275-1.937-6.453-4.08-9.255-6.665 6.954 7.341 16.369 11.657 25.488 15.66 9.068 3.791 18.403 6.938 27.884 9.525-.687-9.762-1.59-19.603-.607-29.371.927-7.176 5.675-13.205 11.363-17.397 1.724-1.37 5.733-4.013 1.442-5.3z" fill="url(#aY)" filter="url(#aZ)" opacity=".983" transform="translate(-858.23 -620.08)"/><path transform="translate(77.85 154.44)" d="M190.56 49.438c-.306.017-.634.154-.938.219-5.809 1.207-14.375 3.945-14.344 11.156 2.017 5.588 9.902 5.43 14.032 9.094 3.94 2.831 12.29 4.51 11.625 10.844-2.203 3.284-7.986 2.189-11.781 2.25-14.826-2.154-28.45-9.23-42.406-14.438-21.228-8.721-43.457-19.087-66.875-17.094-10.237 1.814-19.777 8.959-23.313 18.906 4.19-6.292 10.155-12.788 17.782-14.188 7.826-1.596-.04 4.118-1.22 7.312-6.018 10.247-9.187 34-9.187 34s2.919-10.621 5.063-15.375c2.381-9.584 5.686-20.268 14.062-26.25 11.217-5.37 23.31 1.207 34.406 3.5 24.52 6.983 45.996 22.79 71.344 26.75 5.49.215 13.508-.256 15.656-6.219-1.375-6.648-10.174-6.827-14.531-10.875-4.247-2.4-12.536-5.987-9.907-12.219 2.457-3.56 9.9-2.153 10.812-7.344a.812.812 0 0 0-.28-.03z" fill="#fff" filter="url(#ba)" style="block-progression:tb;text-indent:0;text-transform:none"/></g><g color="#000"><path transform="translate(77.85 154.44)" d="M652.5 108.75c-28.798 0-84.656 35.245-84.656 50.531s89.577 3.531 118.38 3.531c28.798 0 77.969-17.089 77.969-32.375 0-2.918-58.328 2.664-60.031-.125-7.22-11.819-28.355-21.562-51.656-21.562z" fill="url(#bb)"/><path d="M704.73 305.53c-63.189 0-117.39 11.45-127.84 17.781 35.9 3.88 109.29 6.012 155.22 1.375 17.221-2.129 44.993-5.093 69.156-9.844-22.774-4.873-57.238-9.312-96.531-9.312z" fill="#4d4d4d"/><path d="M642.63 374.97c-.264.358 11.39 7.528 26.062 16 14.672 8.472 26.799 15.045 27.062 14.688.264-.358-11.421-7.496-26.094-15.969-14.672-8.472-26.767-15.077-27.031-14.719z" fill="#fff"/></g></svg>