<svg viewBox="0 0 1920 900" xmlns="http://www.w3.org/2000/svg" xmlns:xlink="http://www.w3.org/1999/xlink"><defs><linearGradient id="h"><stop stop-color="#afafaf" offset="0"/><stop stop-color="#fff" offset=".47"/><stop stop-color="#6a6a6a" offset="1"/></linearGradient><linearGradient id="e"><stop stop-color="#afafaf" offset="0"/><stop stop-color="#fff" offset=".333"/><stop stop-color="#6a6a6a" offset="1"/></linearGradient><linearGradient id="j"><stop stop-color="#afafaf" offset="0"/><stop stop-color="#fff" offset=".62"/><stop stop-color="#6a6a6a" offset="1"/></linearGradient><linearGradient id="l"><stop stop-color="#afafaf" offset="0"/><stop stop-color="#fff" offset=".663"/><stop stop-color="#6a6a6a" offset="1"/></linearGradient><linearGradient id="k"><stop stop-color="#ccc" offset="0"/><stop stop-color="#fff" offset=".906"/><stop stop-color="#6a6a6a" offset="1"/></linearGradient><linearGradient id="i"><stop stop-color="#f4f4f4" offset="0"/><stop stop-color="#a0a0a0" offset=".806"/><stop stop-color="#5b5b5b" offset="1"/></linearGradient><linearGradient id="b"><stop stop-color="#ba5bd2" offset="0"/><stop stop-color="#5e1e70" offset=".499"/><stop stop-color="#0f0511" offset="1"/></linearGradient><linearGradient id="d"><stop stop-color="#373737" offset="0"/><stop stop-color="#fff" offset=".79"/><stop stop-color="#787878" offset="1"/></linearGradient><linearGradient id="a"><stop stop-color="#1b1b1b" offset="0"/><stop stop-color="#2f2f2f" offset=".5"/><stop stop-color="#040404" offset="1"/></linearGradient><linearGradient id="g"><stop stop-color="#ba5bd2" offset="0"/><stop stop-color="#5e1e70" offset=".169"/><stop stop-color="#0f0511" offset="1"/></linearGradient><linearGradient id="f"><stop stop-color="#a334c0" offset="0"/><stop stop-color="#d293e2" offset=".5"/><stop stop-color="#6a227d" offset="1"/></linearGradient><linearGradient id="c"><stop stop-color="#ba5bd2" offset="0"/><stop stop-color="#5e1e70" offset=".5"/><stop stop-color="#0f0511" offset="1"/></linearGradient><radialGradient id="m" cx="123.86" cy="946.62" r="155.52" gradientTransform="matrix(.50419 0 0 .74992 979.07 129.49)" gradientUnits="userSpaceOnUse" xlink:href="#a"/><radialGradient id="n" cx="498.93" cy="869.16" r="155.52" gradientTransform="matrix(.46955 -.76645 .60905 .37312 -392.17 944.01)" gradientUnits="userSpaceOnUse"><stop stop-color="#1a1a1a" offset="0"/><stop stop-color="#2f2f2f" offset=".5"/><stop stop-color="#040404" offset="1"/></radialGradient><radialGradient id="o" cx="382" cy="890.68" r="141.17" gradientTransform="matrix(1.1861 0 0 1.4938 -71.008 -427.16)" gradientUnits="userSpaceOnUse" xlink:href="#a"/><radialGradient id="p" cx="384.04" cy="863.65" r="155.52" gradientTransform="matrix(.96595 0 0 1.0756 11.896 -65.099)" gradientUnits="userSpaceOnUse"><stop stop-color="#525252" offset="0"/><stop offset=".761"/><stop stop-color="#212121" offset=".925"/><stop stop-color="#1a1a1a" offset=".97"/><stop offset="1"/></radialGradient><radialGradient id="q" cx="110.68" cy="713.33" r="857.8" gradientTransform="matrix(1.7668 -.16094 .03786 .41561 -118.65 444.64)" gradientUnits="userSpaceOnUse" xlink:href="#b"/><radialGradient id="r" cx="771.78" cy="1303" r="254.07" gradientTransform="matrix(2.0983 -.57258 .28262 1.0357 -1141.2 -333.51)" gradientUnits="userSpaceOnUse" spreadMethod="reflect"><stop stop-color="#a334c0" offset="0"/><stop stop-color="#d293e2" offset=".886"/><stop stop-color="#6a227d" offset="1"/></radialGradient><linearGradient id="t" x1="-510.78" x2="-410.16" y1="899.64" y2="914.64" gradientUnits="userSpaceOnUse" xlink:href="#c"/><linearGradient id="u" x1="421.84" x2="101.01" y1="491.19" y2="495.69" gradientUnits="userSpaceOnUse" xlink:href="#b"/><radialGradient id="v" cx="-29.074" cy="1007.6" r="434.8" gradientTransform="matrix(2.9055 -2.875 .50497 .51034 -494.37 215.67)" gradientUnits="userSpaceOnUse" spreadMethod="reflect"><stop stop-color="#ba5bd2" offset="0"/><stop stop-color="#5e1e70" offset=".94"/><stop stop-color="#0f0511" offset="1"/></radialGradient><radialGradient id="w" cx="515.02" cy="-299.07" r="301.81" gradientTransform="matrix(-1.4739 .20346 -.09839 -.71277 1415.8 337.72)" gradientUnits="userSpaceOnUse" xlink:href="#d"/><linearGradient id="x" x1="142.58" x2="143.21" y1="729.58" y2="743.15" gradientUnits="userSpaceOnUse" xlink:href="#c"/><linearGradient id="y" x1="295.21" x2="219.48" y1="581.15" y2="644.15" gradientUnits="userSpaceOnUse"><stop stop-color="#a334c0" offset="0"/><stop stop-color="#d293e2" offset=".193"/><stop stop-color="#6a227d" offset="1"/></linearGradient><linearGradient id="z" x1="-38.799" x2="-38.749" y1="637.77" y2="770.64" gradientUnits="userSpaceOnUse" xlink:href="#e" spreadMethod="reflect"/><linearGradient id="A" x1="-192.44" x2="-294.97" y1="641.47" y2="714.47" gradientUnits="userSpaceOnUse" xlink:href="#f"/><linearGradient id="B" x1="-356" x2="-216.72" y1="680.73" y2="680.73" gradientUnits="userSpaceOnUse" xlink:href="#e"/><linearGradient id="C" x1="349.94" x2="631.44" y1="661.71" y2="498.71" gradientUnits="userSpaceOnUse"><stop stop-color="#a334c0" offset="0"/><stop stop-color="#942fae" offset=".125"/><stop stop-color="#6a227d" stop-opacity="0" offset="1"/></linearGradient><radialGradient id="D" cx="776.94" cy="505.37" r="333.42" gradientTransform="matrix(1.2249 .003 -.00027 .11068 -174.63 575.67)" gradientUnits="userSpaceOnUse" xlink:href="#c"/><linearGradient id="F" x1="1294.2" x2="696.89" y1="589.59" y2="557.45" gradientUnits="userSpaceOnUse" xlink:href="#g"/><linearGradient id="G" x1="458.3" x2="758.61" y1="624.38" y2="558.88" gradientUnits="userSpaceOnUse" xlink:href="#g"/><linearGradient id="H" x1="655.87" x2="656.29" y1="566.21" y2="607.13" gradientTransform="translate(60.697 57.572) scale(.90201)" gradientUnits="userSpaceOnUse" xlink:href="#b"/><radialGradient id="I" cx="614.3" cy="583.27" r="132.15" gradientTransform="matrix(1 0 0 .24318 0 441.43)" gradientUnits="userSpaceOnUse" xlink:href="#f"/><linearGradient id="K" x1="325.03" x2="360.6" y1="511.66" y2="442.66" gradientUnits="userSpaceOnUse"><stop stop-color="#ba5bd2" offset="0"/><stop stop-color="#5e1e70" offset=".545"/><stop stop-color="#0f0511" offset="1"/></linearGradient><radialGradient id="M" cx="-386.42" cy="992.44" r="230.81" gradientTransform="matrix(1.094 .19476 -.10906 .6126 145.49 395.36)" gradientUnits="userSpaceOnUse" xlink:href="#c"/><linearGradient id="N" x1="141.57" x2="143.21" y1="716.18" y2="743.15" gradientTransform="matrix(.77422 -.06558 .09146 .75155 501.24 308.34)" gradientUnits="userSpaceOnUse" xlink:href="#c"/><linearGradient id="O" x1="136.47" x2="138.55" y1="712.8" y2="744.77" gradientTransform="matrix(.54567 -.02478 .02478 .54567 949.17 395.68)" gradientUnits="userSpaceOnUse" xlink:href="#c"/><radialGradient id="P" cx="669.76" cy="359.62" r="257.83" gradientTransform="matrix(1.4725 -.42245 .21965 .76561 -424.19 529.72)" gradientUnits="userSpaceOnUse" xlink:href="#h"/><radialGradient id="Q" cx="660.48" cy="779.49" r="215.68" gradientTransform="matrix(1.5409 -.11939 .0243 .31363 -408.91 736.44)" gradientUnits="userSpaceOnUse"><stop stop-color="#ba5bd2" offset="0"/><stop stop-color="#5e1e70" offset=".465"/><stop stop-color="#0f0511" offset="1"/></radialGradient><linearGradient id="S" x1="428.16" x2="955.08" y1="920.39" y2="920.39" gradientUnits="userSpaceOnUse" xlink:href="#g"/><radialGradient id="T" cx="543.52" cy="440.72" r="215.68" gradientTransform="matrix(.93264 .53846 -.19295 .33421 171.26 365.58)" gradientUnits="userSpaceOnUse" xlink:href="#c"/><radialGradient id="U" cx="157.7" cy="776.56" r="45.972" gradientTransform="matrix(3.0252 .17441 -.01782 .62376 -307.8 264.03)" gradientUnits="userSpaceOnUse" xlink:href="#c"/><radialGradient id="V" cx="158.08" cy="748.99" r="45.972" gradientTransform="matrix(1.1814 -.00629 .01025 .35594 -21.52 504.2)" gradientUnits="userSpaceOnUse" xlink:href="#i"/><radialGradient id="W" cx="382" cy="890.68" r="141.17" gradientTransform="matrix(.42303 0 0 .96159 1025.6 1.56)" gradientUnits="userSpaceOnUse" xlink:href="#a"/><linearGradient id="X" x1="-208.18" x2="-502.99" y1="750.89" y2="834.27" gradientUnits="userSpaceOnUse" xlink:href="#c" spreadMethod="reflect"/><linearGradient id="Z" x1="504.99" x2="618.58" y1="632.91" y2="632.91" gradientUnits="userSpaceOnUse" xlink:href="#g"/><linearGradient id="aa" x1="574.28" x2="1178.3" y1="632.64" y2="632.64" gradientUnits="userSpaceOnUse" xlink:href="#f"/><linearGradient id="ac" x1="585.77" x2="-577.87" y1="434.06" y2="720.19" gradientTransform="translate(-6 2)" gradientUnits="userSpaceOnUse"><stop stop-color="#ba5bd2" offset="0"/><stop stop-color="#5e1e70" offset=".74"/><stop stop-color="#0f0511" offset="1"/></linearGradient><linearGradient id="ad" x1="-211.54" x2="-488.35" y1="871.76" y2="424.16" gradientTransform="translate(-10.087 28.293) scale(.96049)" gradientUnits="userSpaceOnUse" xlink:href="#b"/><linearGradient id="af" x1="362.36" x2="334.5" y1="1098" y2="955.2" gradientUnits="userSpaceOnUse" xlink:href="#d"/><linearGradient id="ag" x1="922.94" x2="976.66" y1="1512.8" y2="1257.3" gradientTransform="translate(-578.47 -539.35)" gradientUnits="userSpaceOnUse" xlink:href="#i"/><radialGradient id="ah" cx="230.54" cy="779.93" r="117.65" gradientTransform="matrix(.40682 .05295 -.0507 .38952 326.63 551.1)" gradientUnits="userSpaceOnUse" xlink:href="#j" spreadMethod="reflect"/><radialGradient id="ai" cx="958.81" cy="1400" r="121.34" gradientTransform="matrix(.95963 0 0 1.0132 -539.72 -557.6)" gradientUnits="userSpaceOnUse" xlink:href="#k"/><radialGradient id="aj" cx="984.61" cy="1407.1" r="121.34" gradientTransform="matrix(-.39932 0 0 .44394 767.83 241.19)" gradientUnits="userSpaceOnUse" xlink:href="#l"/><linearGradient id="ao" x1="366.15" x2="322.02" y1="713.01" y2="774.01" gradientTransform="translate(-.012 -.036)" gradientUnits="userSpaceOnUse" xlink:href="#j" spreadMethod="reflect"/><radialGradient id="ap" cx="993.38" cy="1397" r="121.34" gradientTransform="matrix(-.39932 0 0 .44394 767.83 241.19)" gradientUnits="userSpaceOnUse" xlink:href="#l"/><linearGradient id="ak" x1="519.15" x2="527.99" y1="1671.3" y2="1655.8" gradientUnits="userSpaceOnUse" xlink:href="#d" spreadMethod="reflect"/><linearGradient id="aq" x1="516.38" x2="547.35" y1="1643.3" y2="1613.4" gradientUnits="userSpaceOnUse" xlink:href="#d" spreadMethod="reflect"/><radialGradient id="ar" cx="980.05" cy="1444.2" r="121.34" gradientTransform="matrix(.01003 .13551 .12601 -.00933 187.15 745.44)" gradientUnits="userSpaceOnUse"><stop stop-color="#afafaf" offset="0"/><stop stop-color="#fff" offset=".657"/><stop stop-color="#6a6a6a" offset="1"/></radialGradient><linearGradient id="as" x1="882.67" x2="767.57" y1="646.63" y2="443.17" gradientTransform="matrix(1 0 0 1.0487 0 -29.864)" gradientUnits="userSpaceOnUse" xlink:href="#c"/><linearGradient id="at" x1="878.43" x2="779.24" y1="630.79" y2="480.59" gradientTransform="matrix(1 0 0 1.0487 -1 -29.614)" gradientUnits="userSpaceOnUse" xlink:href="#g"/><linearGradient id="au" x1="878.43" x2="763.33" y1="630.79" y2="468.79" gradientTransform="matrix(1 0 0 1.0487 30.113 -25.195)" gradientUnits="userSpaceOnUse" xlink:href="#g"/><linearGradient id="av" x1="1475.8" x2="1517" y1="271.41" y2="153.68" gradientUnits="userSpaceOnUse" xlink:href="#b"/><radialGradient id="ay" cx="68.839" cy="1051.3" r="121.67" gradientTransform="matrix(.99107 .14018 -.0401 .28349 34.555 614.35)" gradientUnits="userSpaceOnUse" xlink:href="#f"/><linearGradient id="aA" x1="998.26" x2="1033.6" y1="753.06" y2="913.82" gradientUnits="userSpaceOnUse"><stop stop-color="#ba5bd2" offset="0"/><stop stop-color="#5e1e70" offset=".251"/><stop stop-color="#0f0511" offset="1"/></linearGradient><radialGradient id="aB" cx="847.56" cy="915.7" r="52.8" gradientTransform="matrix(2.1206 -.81109 .8443 2.2074 -1765.3 -394.5)" gradientUnits="userSpaceOnUse" xlink:href="#c"/><linearGradient id="aD" x1="910.06" x2="1067" y1="847" y2="852.05" gradientTransform="matrix(1 0 0 .98029 0 17.639)" gradientUnits="userSpaceOnUse" xlink:href="#c"/><linearGradient id="aE" x1="1262" x2="1058.9" y1="840.94" y2="863.67" gradientUnits="userSpaceOnUse" xlink:href="#c"/><radialGradient id="aF" cx="930.46" cy="704.62" r="43.44" gradientTransform="matrix(2.1863 -1.2623 1.1972 2.0737 -1892.2 365.21)" gradientUnits="userSpaceOnUse" xlink:href="#c"/><linearGradient id="aG" x1="-285.73" x2="-245.31" y1="711.31" y2="711.31" gradientUnits="userSpaceOnUse"><stop stop-color="#262626" offset="0"/><stop offset=".461"/><stop stop-color="#2f2f2f" offset=".922"/><stop stop-color="#040404" offset="1"/></linearGradient><linearGradient id="aH" x1="142.69" x2="543.59" y1="636.32" y2="636.32" gradientUnits="userSpaceOnUse" xlink:href="#f"/><radialGradient id="aJ" cx="493.62" cy="706.86" r="54.779" gradientTransform="matrix(1 0 0 2.3561 0 -1004.6)" gradientUnits="userSpaceOnUse" xlink:href="#c"/><radialGradient id="aK" cx="586.48" cy="711.31" r="54.779" gradientTransform="matrix(.86603 -.5 1.178 2.0404 -789.03 -661.64)" gradientUnits="userSpaceOnUse" xlink:href="#c"/><filter id="an"><feGaussianBlur stdDeviation=".569"/></filter><linearGradient id="al" x1="516.38" x2="547.35" y1="1643.3" y2="1613.4" gradientUnits="userSpaceOnUse" xlink:href="#i" spreadMethod="reflect"/><radialGradient id="am" cx="796.57" cy="1298.1" r="121.34" gradientTransform="matrix(.01003 .13551 .12601 -.00933 187.15 745.44)" gradientUnits="userSpaceOnUse" xlink:href="#k" spreadMethod="reflect"/><filter id="aI"><feGaussianBlur stdDeviation="2.292"/></filter><filter id="R"><feGaussianBlur stdDeviation="2.517"/></filter><filter id="J"><feGaussianBlur stdDeviation="1.523"/></filter><filter id="E" x="-.013" y="-.12" width="1.027" height="1.241"><feGaussianBlur stdDeviation="3.703"/></filter><filter id="aC"><feGaussianBlur stdDeviation=".521"/></filter><filter id="ab" x="-.013" y="-.19" width="1.026" height="1.38"><feGaussianBlur stdDeviation="3.234"/></filter><filter id="L"><feGaussianBlur stdDeviation=".827"/></filter><filter id="Y"><feGaussianBlur stdDeviation=".585"/></filter><filter id="ae"><feGaussianBlur stdDeviation="1.697"/></filter><filter id="az"><feGaussianBlur stdDeviation="1.417"/></filter><filter id="s"><feGaussianBlur stdDeviation="2.076"/></filter><filter id="ax"><feGaussianBlur stdDeviation="1.713"/></filter><linearGradient id="aw" x1="122.9" x2="181.74" y1="861.7" y2="761.8" gradientTransform="matrix(5.6235 -.47636 .6643 5.4589 -469.99 -3443.8)" gradientUnits="userSpaceOnUse"><stop stop-color="#ba5bd2" offset="0"/><stop stop-color="#5e1e70" offset=".533"/><stop stop-color="#0f0511" offset="1"/></linearGradient></defs><g color="#000"><path d="M1171.5 661.53c-43.307 0-78.417 52.201-78.417 116.61 0 64.413 49.253 165.43 92.56 165.43 21.511 0 37.507-24.923 48.159-57.903 7.009-21.699 8.436-46.781 8.575-70.579.075-12.851 7.525-33.827 7.525-45.194 0-64.413-35.095-108.36-78.402-108.36z" fill="url(#m)" transform="matrix(-1 0 0 1 1311.27 -369.84)"/><path d="M214.7 440.48s948.34 52.675 1409.9 155.24c39.212 8.713 124.31 23.994 114.09 38.781-97.083 64.448-224.66 93.017-338.48 104.28-338-12.517-919.02-84.676-1371.6-164.83-37.072-5.636-14.289-17.019-3.906-23.969l129.06-18.846z"/><path d="M388.67 614.92c-104.58 0-189.37 91.581-189.37 204.59s84.787 204.62 189.37 204.62S578 932.511 578 819.51s-84.749-204.59-189.33-204.59z" fill="url(#n)" transform="matrix(-1 0 0 1 1311.27 -369.84)"/><path d="M381.59 712.44c-77.965 0-141.19 68.284-141.19 152.53s63.222 152.56 141.19 152.56c77.965 0 141.16-68.316 141.16-152.56s-63.191-152.53-141.16-152.53zm0 8.719c73.502 0 133.09 64.388 133.09 143.81s-59.592 143.81-133.09 143.81c-73.502 0-133.09-64.388-133.09-143.81s59.592-143.81 133.09-143.81z" fill="url(#o)" transform="matrix(-1 0 0 1 1311.27 -369.84)"/><path d="M381.59 696.94c-85.893 0-155.53 75.218-155.53 168.03s69.638 168.06 155.53 168.06c85.893 0 155.5-75.249 155.5-168.06s-69.607-168.03-155.5-168.03zm-2.375 35.656c.767-.01 1.543-.01 2.313 0 11.307.057 22.62 1.712 33.437 5.031 49.401 14.74 84.161 62.89 88.438 113.44 5.95 53.735-22.132 111.03-71.562 134.75-40.515 20.551-92.366 13.065-126.25-16.844-44.495-37.458-58.446-104.36-36.188-157.5 17.407-44.402 61.463-78.4 109.81-78.875z" fill="url(#p)" transform="matrix(-1 0 0 1 1311.27 -369.84)"/></g><g color="#000"><path d="M923.93 927.01s-162.43 18.587-362.54 32.907c-15.776 1.129-29.41 2.512-45.579.102-8.297-1.236 7.193-22.86 18.553-69.153 2.11-8.6 8.685-10.97 10.27-21.31 14.68-95.738-7.006-210.85-131.67-212.9-83.476-1.373-133.59 68.403-155.22 146.05-24.05 86.327-15.877 181.55-42.144 181.94-176.1 2.6-346.42 12.211-497.57-9.602-10.115-1.46-27.447-26.14-36.949-27.782-34.81-6.02-55.865-12.258-80.79-17.436-12.132-2.52-32.418 3.257-42.175.17-8.328-2.634-11.488-20.68-6.935-25.916 5.863-6.743 21.992-11.885 41.847-15.607 0 0-42.786-87.276-45.633-99.719-10.675-46.648 304.22-190.85 452.85-189.78 52.02.377 222.96-73.29 338.08-94.034 45.049-8.117 90.599-7.82 136.83-11.697 244.49-20.497 715.9 116.94 759.41 161.08 13.443 13.635 22.955 24.812 26.226 46.568 7.794 51.831-9.655 122.83-19.688 134.76-4.343 5.162-4.677 3.018-2.082-12.853 2.22-13.586 7.137-36.07 7.04-58.646-.152-35.532-15.197-70.05-37.723-71.764-23.773-1.808-41.514 4.875-58.249 27.66-21.044 28.65-25.574 69.653-34.213 105.73-11.12 46.438-20.07 84.225-25.51 85.27-32.966 6.334-62.876 10.33-76.08 9.452-10.758-.716-18.988 1.28-31.105 1.57-16.856.404-59.253 4.94-59.253 4.94z" fill="url(#q)" transform="matrix(-1 0 0 1 1311.27 -369.84)"/><path transform="matrix(-1 0 0 1 1920 0)" d="M906.81 248.91C789.85 286.527 617.3 336.623 476.4 433.22c60.224 44.862 115.67 88.978 168.47 138.04l39.721-9.973 136.47-30.25 21.938-5.031s2.415-43.316 9.031-74.344c19.022-89.21 70.916-148.05 104.12-158.41 69.454-32.9-4.861-41.675-49.344-44.344z" fill="url(#r)" filter="url(#s)" opacity=".194"/><path d="M-407.06 888.5c-19.811 3.72-35.896 8.83-41.75 15.562-.174.2-.349.42-.5.656-.025.04-.038.085-.063.125-.147.247-.28.51-.406.782.148 7.337 2.36 13.156 5.125 13.156 2.347 0 3.545-5.785 7.219-10.375.069-.086.593-.299 1.375-.594l-.219-.063 4.625-1.5 29.406-9.656c.033.009.061.022.094.031-.179-.239-4.719-6.291-4.719-6.562 0-.377-.031-1.563-.031-1.563s-.124.004-.156 0z" fill="url(#t)" transform="matrix(-1 0 0 1 1311.27 -369.84)"/><path transform="matrix(-1 0 0 1 1920 0)" d="M164.88 440.59c-.011.009-.02.023-.031.031.392.88.872 1.902 1.281 2.813-.45-1.003-.82-1.877-1.25-2.844zm1.25 2.844c13.478 29.979 35.625 75.188 35.625 75.188-.033.006-.061.025-.094.031.033.004.157 0 .157 0s.03 1.186.03 1.563c0 .27 4.54 6.323 4.72 6.562 91.366 26.325 107.39 21.257 123.22 26.562.475.16.96.32 1.437.5.336.126.662.238 1 .375.15.06.288.126.438.188.418.174.824.37 1.25.562.575.258 1.154.515 1.75.813-2.277-14.415-4.316-32.041-5.094-49.5.215-10.56.31-20.531.093-28.688.184-4.093-1.456-11.591-1.062-14.344a12.753 12.753 0 0 0-1.781-.094c-60.211 1.57-119.44-3.735-161.69-19.72z" fill="url(#u)"/><path d="M48.469 598.25c-34.726-.87-46.339.732-48.219.719-63.646-.461-157.78 25.719-243.78 59.469-.032.013-.095.05-.125.062-.178.07-.353.149-.531.219a4.244 4.244 0 0 1-.281.094c-.46.18-.917.35-1.375.531-1.702.671-3.4 1.354-5.094 2.031-1.69.675-3.38 1.35-5.063 2.031l-2.469 1c-1.916.78-3.844 1.589-5.75 2.375-2.12.876-4.237 1.742-6.343 2.625-1.684.706-3.358 1.415-5.032 2.125a1229.13 1229.13 0 0 0-6.375 2.72c-.792.34-1.584.688-2.375 1.03-1.382.6-2.75 1.211-4.125 1.813-1.518.664-3.054 1.333-4.562 2-.603.267-1.211.545-1.813.812a1188.659 1188.659 0 0 0-7.53 3.375c-1.978.896-3.951 1.788-5.907 2.688-1.092.502-2.197.997-3.281 1.5-.26.12-.522.254-.781.375-2.767 1.285-5.5 2.585-8.22 3.875-.091.044-.188.081-.28.125a1030.358 1030.358 0 0 0-16.563 8.031c-.219.109-.437.235-.656.344a955.409 955.409 0 0 0-7.344 3.687c-.362.185-.732.378-1.093.563-2.257 1.152-4.481 2.287-6.688 3.437-.509.266-1.025.548-1.531.813a836.198 836.198 0 0 0-6.656 3.531c-.433.232-.882.456-1.313.688-1.85.995-3.69 2.008-5.5 3a721.434 721.434 0 0 0-7.156 3.968c-.854.481-1.72.99-2.563 1.469-2.447 1.393-4.864 2.775-7.218 4.156a555.65 555.65 0 0 0-11.844 7.156 465.9 465.9 0 0 0-3.875 2.438c-.43.273-.856.54-1.281.812-1.413.905-2.825 1.792-4.188 2.688-.753.495-1.48 1.008-2.219 1.5-1.438.96-2.87 1.927-4.25 2.875-1.374.945-2.749 1.88-4.062 2.812-1.583 1.126-3.102 2.27-4.594 3.375-.184.137-.38.27-.562.407-1.16.865-2.273 1.71-3.375 2.562-.588.455-1.18.924-1.75 1.375-.666.526-1.296 1.042-1.938 1.563-.86.697-1.745 1.406-2.562 2.093-.04.033-.087.062-.125.094a155.41 155.41 0 0 0-3.688 3.219c-.336.302-.641.606-.969.906-.95.87-1.876 1.711-2.75 2.563-.556.541-1.1 1.06-1.625 1.594-.035.035-.058.089-.093.125-.486.495-.98.98-1.438 1.468-.2.214-.399.413-.594.625-.37.403-.711.82-1.062 1.22a68.817 68.817 0 0 0-1.281 1.5c-.09.108-.193.203-.282.312-.385.47-.737.944-1.093 1.406-.397.514-.796 1.027-1.157 1.531-.025.036-.068.058-.093.094-.341.48-.661.966-.969 1.437-.034.052-.06.105-.094.156-.179.278-.332.57-.5.844-.212.349-.432.688-.625 1.031-.095.17-.19.332-.28.5-.142.261-.278.524-.407.782-.114.228-.208.462-.313.687-.148.317-.276.626-.406.938-.014.034-.048.06-.062.093-.156.38-.309.754-.438 1.125-.014.04-.018.086-.031.125-.102.3-.198.612-.281.907 48.054 15.543 137.36 23.812 212.28 23.812 34.432 0 74.779.058 107.19-2.875 141.44-97.136 314.94-147.32 432.06-185.03 11.669-3.757 22.603-6.82 34.124-9.34 7.562-1.656 15.232-2.823 22.913-3.785 76.133-14.308 69.434 32.057 60.653-7.787-121.26-19.536-244.25 2.359-368.47.781z" fill="url(#v)" transform="matrix(-1 0 0 1 1311.27 -369.84)"/><path d="M505.31 492.34a682.905 682.905 0 0 0-30.156.906c-46.325 2.428-91.794 3.57-136.84 11.688-110.97 19.996-273.78 89.157-331.97 93.781 69.298 1.99 219.65-6.699 329.48-5.185 34.39.474 98.572 7.753 103.08 4.466 15.289-11.138 103.02-84.289 171.06-100.81-36.985-3.343-72.259-5.107-104.66-4.843z" fill="url(#w)" transform="matrix(-1 0 0 1 1311.27 -369.84)"/><path d="M288.06 731.62c-136.43 6.725-249.03 11.688-325.88 15.188a1046.78 1046.78 0 0 0-9.469 5c75.872-3.466 192.03-8.529 332.47-15.438.935-1.6 1.907-3.182 2.875-4.75z" fill="url(#x)" opacity=".698" transform="matrix(-1 0 0 1 1311.27 -369.84)"/><path d="M-54.847 750.99c-1.436 0-97.441 6.385-97.441 6.385 37.54-28.218 67.496-53.851 167.67-103.41 71.77-11.083 143.33-21.007 213.09-21.04-74.205 25.364-194.16 70.242-283.32 118.07z" fill="url(#y)" transform="matrix(-1 0 0 1 1311.27 -369.84)"/><path d="M-51.731 748.77c-1.341 0-87.972 4.49-87.972 4.49 35.058-26.351 63.034-50.291 156.59-96.574 119.05-20.957 199-19.65 199-19.65s-131.21 41.99-267.62 111.73z" fill="url(#z)" transform="matrix(-1 0 0 1 1311.27 -369.84)"/><path d="M-216.22 648.91c-.238.087.055-.857-.183-.77-66.47 23.357-122.73 52.452-139.39 64.449-1.08.686-.682.312.294 1.227 34.54-18.527 134.25-54.656 134.25-54.656z" fill="url(#A)" transform="matrix(-1 0 0 1 1311.27 -369.84)"/><path d="M-216.72 648.28c-37.189 13.632-73.62 28.974-106.31 44.594-11.289 6.238-22.309 12.956-32.969 20.312 34.54-18.527 134.25-54.656 134.25-54.656l5.031-10.25z" fill="url(#B)" transform="matrix(-1 0 0 1 1311.27 -369.84)"/><path d="M589.19 495.47zm20.75 1.719c-68.042 16.537-155.74 89.677-171.03 100.81-.544.396-2.304.57-4.969.562 23.36 5.046 45.077 10.828 47.5 9.063 15.174-11.054 99.215-89.141 167-106.47a1573.131 1573.131 0 0 0-38.469-3.969h-.031z" fill="url(#C)" transform="matrix(-1 0 0 1 1311.27 -369.84)"/></g><path d="M1005.6 613.06c-169.12.61-415.06 12.406-415.06 12.406s6.184 3.79 9.563 5.062c10.592 3.99 21.857 6.073 33.03 7.875 207.38 33.448 380.19-22.216 624.25 48.438-4.663-13.226-12.605-22.178-22.813-32.53-8.379-8.5-32.656-20.47-68.094-34.095-27.23-1.892-63.775-6-94.03-6.656-20.082-.435-42.685-.587-66.845-.5z" fill="url(#D)" filter="url(#E)" opacity=".344" transform="matrix(-1 0 0 1 1311.27 -369.84)"/><g color="#000"><path d="M552.06 552.84l-2.031.375c-32.258 23.28-59.607 48.079-68.731 55.078 14.108 3.567 40.87 15.154 49.419 13.891 39.228-5.794 102.43-9.084 200.81-12.812 11.897-2.49 30.784.25 25-15.5l-9.656-29c-3.638-10.336-1.612-13.495-33.031-10.125l-135.53 15.656c-19.192 3.699-15.256 4.784-23.47-15.188z" fill="url(#F)" stroke="url(#G)" stroke-width="2" transform="matrix(-1 0 0 1 1311.27 -369.84)"/><path d="M720.55 607.24c10.731-2.246 27.767.226 22.55-13.981l-8.71-26.158c-3.28-9.323-1.453-12.172-29.795-9.133l-122.25 14.122c-147.73 38.612-69.2 43.304 138.21 35.15z" fill="url(#H)" opacity=".397" transform="matrix(-1 0 0 1 1311.27 -369.84)"/><path d="M557.1 578.85l183.34-21.718-172.72 31.425-79.575 20.835 13.894-12.107c16.309-7.166 33.42-13.931 55.053-18.435z" fill="url(#I)" filter="url(#J)" opacity=".802" transform="matrix(-1 0 0 1 1311.27 -369.84)"/><path transform="matrix(-1 0 0 1 1920 0)" d="M480.84 446.06c-55.474 4.062-120.46 5.653-151.25 17.188-.394 2.753 1.246 10.251 1.063 14.344.217 8.156.121 18.127-.094 28.688.778 17.459 2.817 35.085 5.264 52.579 2.446 17.494 2.17 17.938 6.298 31.296l85.781 9.094s70.001 1.486 72.97-27.094c30.34-11.365-62.97-113.43-8.345-117.34-4.107-3.199-9.923-7.425-11.688-8.75z" fill="url(#K)" filter="url(#L)" opacity=".595"/><path d="M-256.43 840.93c30.793-11.534 84.709-12.304 140.18-16.366 104.16 78.278 97.709 71.93 146.6 118.87l173.97-38.577-177.93 44.746c-95.308 32.037-197.81 19.699-197.81 19.699l-73.709-14.527s-14.788-76.514-11.306-113.84z" fill="url(#M)" transform="matrix(-1 0 0 1 1311.27 -369.84)"/><path d="M963.52 816.06c-74.753 9.967-119.56 16.626-198.46 26.938-77.405 10.117-161.78 20.943-220.84 28.594a21.769 21.769 0 0 1-1.219 3.625c47.53-6.154 112.51-14.467 190.81-24.781 58.403-7.561 125.75-17.011 227.93-30.625a162.061 162.061 0 0 1 1.781-3.75z" fill="url(#N)" transform="matrix(-1 0 0 1 1311.27 -369.84)"/><path d="M1124.5 787.77c-74.277 7.05-135.6 12.55-177.44 16.363-1.684.974-3.367 1.97-5.043 2.963 41.315-3.772 104.57-9.413 181.04-16.663.47-.896.961-1.784 1.451-2.663z" fill="url(#O)" transform="matrix(-1 0 0 1 1311.27 -369.84)"/></g><g fill="url(#P)" transform="matrix(-1 0 0 1 1311.27 -369.84)"><path d="M637.16 504.53c-29.091 9.908-60.213 29.29-87.094 48.688l2-.375 2.781 2.375c8.213 19.971 4.277 18.886 23.47 15.188l135.53-15.656c31.42-3.37 29.393-.21 33.03 10.125l9.656 29c5.784 15.751-13.103 13.01-25 15.5-77.82 2.95-133.56 5.643-172.91 9.5 94.478-1.378 185.52-2.071 292.44-5.938-3.465-13.255-53.16-84.289-61.78-86.03-49.009-9.906-102.51-19.483-150.22-22.281-.651-.039-1.268-.065-1.907-.094z" color="#000"/><path d="M948.57 610.93l117.14.714c-54.199-24.274-115.64-42.39-173.57-63.286-28.456-10.264-73.973-16.562-73.973-16.562 33.344 44.944 46.807 63.453 62.332 80.78"/></g><g color="#000" transform="matrix(-1 0 0 1 1311.27 -369.84)"><path d="M566.33 952.63c48.099-3.22 319.48-30.154 377.82-39.461-36.879-9.742 50.845-3.379-16.13-26.073-128.55 21.647-262.71 49.43-410.86 60.462 0 0 9.512 9.137 49.171 5.072z" fill="url(#Q)" filter="url(#R)" stroke="url(#S)" stroke-width="2"/><path d="M927.94 884.94c-131.35 22.118-262.45 49.112-412.86 61.094-.343.949-.648 1.807-.938 2.656 150.58-11.966 281.8-38.957 413.26-61.094 19.548 6.624 27.063 10.731 28.594 13.5 2.981-2.584-1.075-7.012-28.061-16.156zm15.094 22.875c-2.73.927-3.17 2.004 2.938 4.031 2.3-.335 4.425-.668 6.312-.969-4.82-1.273-7.727-2.259-9.25-3.062z" fill="url(#T)"/><rect transform="matrix(.99788 -.06514 .0292 .99957 0 0)" x="123.1" y="760.62" width="99.912" height="21.075" rx="6.016" ry="8.976" fill="url(#U)"/><rect transform="matrix(.99827 -.05881 .03236 .99948 0 0)" x="124.59" y="760.84" width="92.008" height="17.523" rx="5.54" ry="7.463" fill="url(#V)"/></g><g color="#000"><path d="M1187 735.13c-27.807 0-50.355 43.955-50.355 98.185 0 54.23 22.549 98.205 50.355 98.205 27.807 0 50.344-43.975 50.344-98.205S1214.807 735.13 1187 735.13zm0 5.612c26.215 0 47.469 41.447 47.469 92.573 0 51.126-21.254 92.573-47.469 92.573s-47.469-41.447-47.469-92.573c0-51.126 21.254-92.573 47.469-92.573z" fill="url(#W)" transform="matrix(-1 0 0 1 1311.27 -369.84)"/><path d="M-402.25 896.59c103.2 29.742 110.08 19.404 129.29 29.19 2.502 20.508 2.224 20.833 6.411 34.367 0 0-9.518 2.753-24.07-2.32-8.668-6.692-13.737-18.163-23.503-19.36l-122.15-30.72z" fill="url(#X)" filter="url(#Y)" transform="matrix(-1 0 0 1 1311.27 -369.84)"/><path transform="matrix(-2.1357 0 0 1 1949.28 -369.84)" d="M587.03 616.5c-20.14 1.458-37.021 3.082-51.094 4.969-.03.521-.063 1.064-.063 1.594 0 14.505 20.082 30.25 34.428 30.25 12.815 0 15.01-13.38 17.134-25.72h-.03c-10.365-.82-15.986-4.618-13.376-7.312l13.656.188c-.133-1.357-.332-2.688-.656-3.97z" fill="#220b28" opacity=".444" stroke="url(#Z)" stroke-width="1.369"/></g><path d="M574.02 620.27c-2.61 2.694 3.02 6.502 13.385 7.324 182.1-.08 356.62-25.387 590.43 24.749 10.516-20.781-36.839-31.35-94.197-40.154-164.54-2.863-320.62 3.359-491.69 8.333" fill="url(#aa)" filter="url(#ab)" opacity=".802" transform="matrix(-1 0 0 1 1311.27 -369.84)"/><path d="M172.22 595.94c-68.695 3.022-133.54 3.746-153.8 3.287S3.429 600.51-4.021 601.53c-9.872 1.353-21.557 4-29.461 5.057-101.45 13.557-181.33 49.864-349.72 117.76-2.982 1.949-3.745 3.564.573 4.55 45.983 6.98 102.29 9.737 151.91 9.547 34.432-.131 69.756.688 102.34.688 94.333-66.656 206.15-121.45 300.59-143.19z" color="#000" fill="url(#ac)" transform="matrix(-1 0 0 1 1311.27 -369.84)"/><path d="M161.09 598.77c-65.981 2.903-128.27 3.598-147.72 3.158-19.454-.44-14.399 1.231-21.555 2.211-9.482 1.3-20.705 3.843-28.297 4.858-98.954 13.224-176.55 48.984-343.52 116.17 45.541 7.667 103.43 10.669 154.07 10.475 33.071-.127 67 .66 98.3.66 90.607-64.022 198.01-116.65 288.72-137.53z" color="#000" fill="url(#ad)" filter="url(#ae)" transform="matrix(-1 0 0 1 1311.27 -369.84)"/><g color="#000"><path d="M445.87 756.63c2.095 9.532 25.426 48.41 28.67 74.967 8.705 71.272-31.816 140.06-97.253 140.06-43.33 0-91.84-35.756-112.5-73.268 12.374 56.422 59.303 98.396 115.3 98.396 65.437 0 109.57-70.577 118.47-128.04 6.32-40.805-42.119-92.966-52.68-112.12z" fill="url(#af)" opacity=".535" transform="matrix(-1 0 0 1 1311.27 -369.84)"/><path d="M379.21 732.58c-48.349.474-92.405 34.473-109.81 78.875-22.259 53.137-8.308 120.04 36.188 157.5 33.884 29.909 85.735 37.395 126.25 16.844 49.431-23.722 77.512-81.015 71.562-134.75-4.277-50.548-39.036-98.699-88.438-113.44-10.816-3.319-22.129-4.974-33.438-5.031-.77-.01-1.545-.01-2.313 0zm2.313 7.063c10.704.054 21.417 1.608 31.655 4.75 46.763 13.952 79.671 59.558 83.72 107.41 5.631 50.866-20.929 105.11-67.72 127.56-38.352 19.453-87.456 12.373-119.53-15.939-42.119-35.458-55.32-98.795-34.25-149.09 16.74-42.698 59.506-75.26 106.12-74.688z" fill="url(#ag)" transform="matrix(-1 0 0 1 1311.27 -369.84)"/><path d="M379.29 737.93a99.21 99.21 0 0 0-4.344.156c-1.229.065-2.434.11-3.656.219l-.344.031c-.831.077-1.672.215-2.5.313-.44.052-.874.098-1.312.156-.602.079-1.213.16-1.813.25-1.033.155-2.067.345-3.094.531-.028.01-.064-.01-.093 0-.1.018-.181.013-.281.031-1.014.187-2.026.408-3.032.625-.722.155-1.437.33-2.156.5-.61.145-1.237.25-1.844.406-.742.19-1.48.42-2.219.625-.459.128-.917.241-1.374.375-1.067.313-2.131.655-3.188 1-33.321 10.876-61.283 37.712-74.125 70.47-.304.726-.616 1.455-.906 2.187-.095.238-.157.48-.25.719a124.646 124.646 0 0 0-1.438 3.843c-.112.319-.234.618-.344.938-.095.277-.188.566-.28.844-.175.518-.334 1.041-.5 1.562-.103.319-.182.65-.282.969-.2.64-.435 1.263-.625 1.906-.153.519-.291 1.042-.438 1.563-.017.06-.045.126-.062.187-.225.806-.416 1.627-.625 2.438-.182.703-.361 1.387-.531 2.093-.034.139-.061.268-.094.407-.196.828-.413 1.667-.594 2.5-.002.01.002.022 0 .03-.043.199-.052.396-.093.594-.164.771-.35 1.54-.5 2.313a132.97 132.97 0 0 0-.532 2.937c-.166.98-.292 1.955-.437 2.938-.122.83-.269 1.668-.375 2.5-.039.3-.089.605-.125.906-.08.662-.117 1.306-.188 1.969-.026.251-.068.498-.093.75-.014.13-.019.244-.032.375-.077.792-.155 1.612-.218 2.406-.074.92-.164 1.829-.22 2.75-.003.07.005.149 0 .219-.114 1.982-.157 3.983-.187 5.969-.506 34.497 11.907 69.214 35.938 94.094.691.715 1.384 1.457 2.094 2.156.713.7 1.425 1.378 2.156 2.062.732.684 1.468 1.365 2.22 2.032.1.089.21.192.312.28.65.577 1.3 1.126 1.969 1.688.758.67 1.535 1.354 2.312 2 .37.309.75.603 1.125.907a104.97 104.97 0 0 0 2.719 2.125c.09.069.19.119.281.187.85.637 1.695 1.264 2.563 1.875.193.136.368.271.562.406.107.074.236.145.344.219.946.651 1.877 1.286 2.844 1.906h.03c.16.102.342.212.5.313 1.038.657 2.068 1.285 3.126 1.906 1.158.68 2.35 1.363 3.531 2 1.149.619 2.3 1.204 3.469 1.781.297.147.608.294.906.438.84.405 1.65.803 2.5 1.187 1.388.626 2.807 1.244 4.219 1.813 28.715 11.573 62.22 11.28 90.125-2.875a111.45 111.45 0 0 0 15.063-8.75c.588-.406 1.17-.833 1.75-1.25.581-.418 1.145-.822 1.719-1.25l.25-.188c.424-.318.83-.644 1.25-.968.219-.17.438-.33.656-.5.592-.465 1.198-.93 1.781-1.407.044-.036.081-.089.125-.125.26-.213.523-.41.781-.625.362-.302.705-.6 1.063-.906.123-.105.253-.207.375-.312.493-.426.982-.88 1.469-1.313.28-.25.565-.497.843-.75.32-.29.621-.58.938-.875.44-.408.879-.804 1.312-1.219.148-.14.291-.264.438-.406.59-.57 1.202-1.167 1.781-1.75.562-.567 1.105-1.141 1.656-1.719.556-.582 1.082-1.157 1.625-1.75.998-1.088 1.98-2.189 2.938-3.312.092-.108.19-.205.281-.313.81-.956 1.625-1.957 2.406-2.937.395-.495.77-.969 1.157-1.469.017-.022.045-.04.062-.062a128.23 128.23 0 0 0 2.375-3.188c.432-.596.828-1.208 1.25-1.812.082-.118.168-.225.25-.344.506-.73 1.009-1.447 1.5-2.187.264-.399.521-.818.781-1.219.297-.459.615-.913.907-1.375 15.777-25.04 23.167-55.581 19.906-85.031-.343-4.052-.914-8.091-1.657-12.094-.016-.09-.045-.191-.062-.281-.162-.861-.32-1.705-.5-2.563a128.117 128.117 0 0 0-1.313-5.656c-.24-.932-.489-1.855-.75-2.781-.11-.39-.23-.769-.343-1.157-.159-.541-.304-1.085-.47-1.625-.07-.23-.146-.457-.218-.687l-.156-.5c-.299-.945-.617-1.875-.938-2.813-.172-.502-.353-.999-.531-1.5-.195-.55-.39-1.108-.594-1.656-.133-.359-.27-.704-.406-1.062-.14-.37-.262-.757-.406-1.125-.207-.529-.412-1.037-.625-1.563-.143-.352-.323-.711-.469-1.062-.594-1.429-1.2-2.843-1.844-4.25-.386-.843-.752-1.697-1.156-2.532l-.062-.125c-.044-.089-.082-.16-.125-.25a132.88 132.88 0 0 0-2.375-4.593c-.053-.098-.104-.214-.157-.313-.334-.619-.655-1.23-1-1.844-.129-.23-.275-.458-.406-.687a130.64 130.64 0 0 0-1.469-2.5c-15.044-25.136-38.405-45.172-66.844-53.656a108.974 108.974 0 0 0-16.719-3.719c-1.06-.15-2.123-.256-3.187-.375-1.149-.128-2.317-.25-3.469-.344-.2-.016-.393-.047-.594-.062l-.406-.03a114.806 114.806 0 0 0-3.625-.188h-.25c-1.283-.049-2.56-.087-3.844-.094-.738-.01-1.482-.01-2.219 0zm24.188 18.125c23.199 5.396 44.143 20.141 58.344 39.719-11.597 7.972-22.435 14.102-32.969 11.844a10.673 10.673 0 0 0-.125-.031c-7.137-1.455-14.693-5.062-20.031-9.875-5.338-4.813-8.436-10.326-8.688-16.844a10.673 10.673 0 0 0 0-.344c-.543-7.71 1.02-15.897 3.47-24.469zm-63.156 6.688c3.915 14.772 8.299 26.914 4.438 36.905-.008.021-.023.041-.032.062-2.935 6.941-8.328 13.801-14.594 18.156-6.284 4.369-12.984 6.262-19.906 4.97a10.673 10.673 0 0 0-.125 0c-6.408-1.133-12.975-4.72-19.812-8.876 10.29-21.978 28.261-40.582 50.031-51.219zm142.91 88.53c2.627 22.56-1.385 46.038-11.375 66.312-4.024-3.076-7.819-6.173-10.938-9.343-5.59-5.682-8.896-11.066-9.531-17.781a10.673 10.673 0 0 0-.031-.219c-.841-7.275.286-15.49 3.218-22s7.254-11.186 13.438-13.53a10.673 10.673 0 0 0 .25-.095c4.372-1.787 9.525-2.694 14.97-3.344zm-203.88 22.531c5.877.128 11.615.412 16.625 1.407 7.541 1.497 13.098 4.099 17.219 9.187a10.673 10.673 0 0 0 .312.375c4.73 5.305 8.455 12.622 9.72 19.594s.315 13.226-3.376 18.5a10.673 10.673 0 0 0-.25.375c-3.52 5.5-9.001 10.463-15.03 15.5-14.698-18.272-23.41-41.285-25.22-64.938zm120.62 59.656a10.673 10.673 0 0 0 .031 0c11.846-.276 22.857 10.724 27.25 23.281a10.673 10.673 0 0 0 .344.875c.993 2.191 1.772 3.993 2.437 5.688-21.378 12.719-48.385 16.453-72.687 10.156 4.995-13.65 8.37-25.572 16.5-32.281a10.673 10.673 0 0 0 .344-.281c5.812-5.211 15.37-7.234 25.781-7.438z" fill="url(#ah)" transform="matrix(-1 0 0 1 1311.27 -369.84)"/><path d="M379.31 737.93a99.734 99.734 0 0 0-4.348.15c-1.23.065-2.437.13-3.659.24l-.36.03c-.831.077-1.661.202-2.489.3-.44.052-.88.092-1.32.15-.601.079-1.199.18-1.799.27-1.033.154-2.062.324-3.088.51-.03.01-.061-.01-.09 0-.1.017-.2.041-.3.06-1.013.186-2.023.382-3.029.6-.723.154-1.44.339-2.16.509-.609.145-1.222.264-1.829.42-.742.19-1.481.394-2.219.6-.459.127-.922.255-1.38.39-1.066.312-2.121.644-3.178.989-33.32 10.876-61.29 37.716-74.13 70.473-.305.726-.61 1.457-.9 2.19-.095.237-.178.48-.27.719a124.49 124.49 0 0 0-1.44 3.838c-.112.319-.22.64-.33.96-.095.277-.177.562-.27.84a125.66 125.66 0 0 0-.51 1.56c-.102.318-.2.639-.3.959-.2.64-.41 1.276-.6 1.919-.152.518-.303 1.039-.449 1.56-.017.06-.043.118-.06.18-.225.805-.42 1.618-.63 2.428-.182.704-.37 1.393-.54 2.1-.033.138-.056.28-.09.42-.196.828-.389 1.656-.57 2.488-.001.01.003.021 0 .03-.042.199-.077.402-.12.6-.163.771-.33 1.535-.479 2.31-.189.975-.373 1.958-.54 2.938-.166.98-.305 1.956-.45 2.939-.122.83-.253 1.657-.36 2.489-.038.3-.083.599-.12.9-.08.661-.139 1.316-.21 1.979-.026.251-.064.498-.09.75-.013.13-.017.259-.03.39-.077.792-.146 1.605-.21 2.398-.073.92-.154 1.838-.21 2.76-.003.07.005.14 0 .21-.114 1.981-.18 3.981-.21 5.967-.506 34.497 11.927 69.224 35.957 94.104.69.715 1.389 1.43 2.1 2.13.712.7 1.427 1.384 2.158 2.068.732.684 1.468 1.373 2.22 2.04l.3.27c.65.576 1.31 1.146 1.979 1.709.758.67 1.531 1.333 2.309 1.979.37.308.734.627 1.11.93.893.722 1.812 1.407 2.728 2.099.091.069.179.141.27.21.85.637 1.711 1.248 2.579 1.86.194.135.375.284.57.419.107.074.222.136.33.21.946.651 1.882 1.299 2.849 1.92h.03c.158.101.32.198.48.299 1.036.658 2.09 1.298 3.148 1.92a109.11 109.11 0 0 0 6.987 3.778c.298.146.602.276.9.42.84.405 1.669.815 2.519 1.2 1.388.625 2.786 1.23 4.198 1.798 28.715 11.573 62.24 11.276 90.145-2.879a111.16 111.16 0 0 0 15.054-8.726c.589-.406 1.16-.843 1.74-1.26.581-.417 1.166-.83 1.739-1.26l.24-.179c.424-.319.84-.636 1.26-.96.219-.17.441-.339.66-.51.591-.464 1.186-.933 1.769-1.409.044-.036.076-.084.12-.12.26-.213.52-.414.78-.63.36-.302.72-.593 1.079-.9.123-.104.237-.224.36-.33.493-.425.983-.855 1.47-1.289.28-.25.56-.497.839-.75.32-.29.643-.575.96-.87.44-.407.855-.814 1.289-1.229.147-.14.303-.278.45-.42.59-.57 1.19-1.156 1.77-1.739.561-.566 1.098-1.132 1.648-1.709.556-.582 1.106-1.176 1.65-1.77.997-1.087 1.98-2.175 2.939-3.298.092-.108.178-.222.27-.33a126.39 126.39 0 0 0 2.399-2.909c.394-.494.782-.999 1.17-1.5.016-.021.042-.037.06-.06.81-1.049 1.59-2.103 2.368-3.178.432-.596.838-1.196 1.26-1.8.082-.117.158-.24.24-.36.506-.729 1.008-1.448 1.499-2.188.264-.399.52-.799.78-1.2.297-.458.608-.917.9-1.38 15.776-25.04 23.172-55.595 19.911-85.046a123.259 123.259 0 0 0-1.649-12.085c-.017-.09-.043-.18-.06-.27-.162-.861-.33-1.721-.51-2.58-.395-1.887-.838-3.769-1.32-5.637-.24-.932-.488-1.863-.749-2.789-.11-.389-.217-.782-.33-1.17-.158-.541-.314-1.08-.48-1.619-.07-.23-.138-.46-.21-.69l-.15-.48c-.298-.945-.609-1.88-.93-2.818-.17-.503-.361-1-.539-1.5-.196-.55-.397-1.101-.6-1.65-.133-.358-.253-.72-.39-1.079-.14-.37-.275-.74-.42-1.11-.206-.528-.416-1.063-.63-1.589-.142-.352-.303-.698-.449-1.05a132.148 132.148 0 0 0-1.86-4.258c-.385-.842-.765-1.684-1.169-2.519l-.06-.12c-.043-.089-.076-.18-.12-.27-.755-1.55-1.553-3.07-2.369-4.588-.053-.098-.097-.201-.15-.3a132.914 132.914 0 0 0-1.41-2.549c-.477-.84-.972-1.66-1.469-2.489-15.044-25.136-38.405-45.165-66.844-53.649a109.145 109.145 0 0 0-16.734-3.718c-1.06-.15-2.114-.271-3.178-.39a113.427 113.427 0 0 0-3.45-.33c-.2-.016-.399-.045-.599-.06l-.42-.03a115.112 115.112 0 0 0-3.628-.21h-.24a117.002 117.002 0 0 0-3.839-.09c-.738-.01-1.482-.01-2.219 0zm16.434 5.758c5.645.768 11.226 1.957 16.674 3.628 27.252 8.131 49.658 27.291 64.145 51.34-17.182 10.738-36.574 32.463-69.723 11.036-27.076-17.502-16.267-46.18-11.096-66.004zm-47.712 4.408c1.714 20.478 24.715 48.844-9.806 76.92-22.812 18.553-44.62 4.318-61.386-6.717.36-.924.726-1.844 1.11-2.76 12.196-31.111 38.568-56.707 70.082-67.443zm144.36 91.645c.787 4.1 1.358 8.23 1.71 12.385 3.12 28.181-3.895 57.423-18.894 81.448-15.43-13.21-42.822-24.768-32.567-63.366 7.062-26.582 30.353-29.45 49.751-30.468zm-224.04 23.181c20.232 1.53 48.956-4.95 63.276 32.118 11.229 29.067-12.303 45.774-28.189 58.597-23.359-23.89-35.475-57.402-35.086-90.715zm129.37 59.977c29.796-.709 38.249 26.118 45.402 44.863a106.872 106.872 0 0 1-15.114 8.847c-26.405 13.393-58.023 13.898-85.347 3.328 11.025-17.359 8.619-54.53 53.499-56.978a49.201 49.201 0 0 1 1.56-.06z" fill="url(#ai)" transform="matrix(-1 0 0 1 1311.27 -369.84)"/><path d="M382.19 830.79c.39 0 .78.021 1.169.042.33.017.655.038.984.067h.1c.225.021.442.058.665.084.119.014.244.026.362.042.162.021.318.052.48.076.277.042.556.085.832.135h.025c.027 0 .049.012.076.017.272.05.545.101.816.16.194.041.386.088.58.134.164.039.333.076.496.118.2.05.399.104.597.16.124.034.247.065.37.1.287.084.574.177.858.27 8.967 2.926 16.492 10.149 19.948 18.964.082.195.166.391.244.588.025.064.042.13.067.194.134.342.273.687.395 1.034.03.086.055.175.085.26l.075.228c.047.14.09.28.135.42.027.086.057.167.084.253.054.172.109.348.16.521l.117.42c.005.016.013.026.017.042.06.217.112.438.168.656.05.19.106.374.152.564.009.037.008.08.017.118.052.223.11.44.16.664v.01l.033.16a35.051 35.051 0 0 1 .488 2.876c.01.081.024.163.033.244.022.178.04.351.06.53.006.068.018.134.024.202.004.035-.003.074 0 .109.021.213.042.426.06.64.02.247.043.5.058.748v.05c.031.534.051 1.073.06 1.607.136 9.284-3.214 18.635-9.68 25.33-.187.193-.373.385-.564.573-.192.188-.384.37-.58.555-.197.184-.395.367-.598.546l-.084.076c-.175.156-.35.312-.53.463-.204.18-.413.356-.622.53-.1.083-.202.17-.303.252-.24.195-.485.378-.731.564l-.076.059c-.229.171-.456.331-.69.496-.052.037-.099.08-.151.118-.029.02-.064.03-.093.05-.254.175-.505.354-.765.52h-.008c-.043.028-.083.049-.126.077a29.153 29.153 0 0 1-2.733 1.539c-.08.039-.155.07-.236.11a30.218 30.218 0 0 1-1.808.807c-7.728 3.114-16.753 3.035-24.263-.774a29.922 29.922 0 0 1-4.053-2.346c-.159-.11-.307-.233-.463-.345-.156-.113-.317-.221-.47-.337l-.068-.05c-.114-.087-.224-.166-.337-.253-.059-.046-.118-.097-.176-.143-.16-.125-.323-.25-.48-.378-.011-.01-.021-.024-.033-.034-.07-.057-.14-.11-.21-.169-.098-.08-.19-.161-.286-.244l-.101-.084c-.133-.114-.265-.228-.396-.344l-.227-.202c-.086-.078-.167-.157-.252-.236-.118-.11-.236-.224-.353-.336-.04-.038-.078-.071-.118-.11a33.363 33.363 0 0 1-.48-.47c-.15-.153-.288-.3-.437-.455-.149-.156-.299-.32-.445-.479-.269-.293-.533-.589-.79-.891-.026-.03-.052-.055-.077-.084a34.273 34.273 0 0 1-.647-.782c-.106-.134-.207-.27-.311-.404-.005-.01-.012-.011-.017-.017-.218-.283-.43-.569-.64-.858-.115-.16-.222-.317-.336-.48-.022-.031-.045-.068-.067-.1-.136-.197-.271-.39-.404-.589l-.21-.32c-.08-.123-.157-.245-.235-.37-4.246-6.738-6.243-14.966-5.366-22.892.092-1.09.246-2.177.446-3.254.005-.024.012-.043.017-.067.043-.232.086-.467.134-.698.107-.508.232-1.011.362-1.514.064-.25.131-.508.202-.757.03-.105.053-.207.084-.311.042-.146.09-.292.134-.437.02-.062.032-.124.05-.186.014-.043.03-.083.043-.126.08-.254.166-.504.252-.756.046-.136.095-.27.143-.404.053-.148.105-.298.16-.446.036-.097.073-.198.11-.294.037-.1.07-.195.109-.295.055-.142.11-.287.168-.428.038-.095.087-.192.126-.286a35.378 35.378 0 0 1 .816-1.825c.005-.011.011-.014.016-.025.012-.024.014-.052.026-.076.203-.418.42-.828.639-1.237l.042-.076c.09-.166.185-.34.277-.504.035-.062.066-.124.101-.185.129-.226.262-.45.396-.673 4.048-6.765 10.335-12.148 17.989-14.432a29.437 29.437 0 0 1 5.357-1.11c.309-.035.623-.06.933-.084.054 0 .106-.013.16-.017.038 0 .072-.01.11-.01.323-.024.651-.046.975-.06h.067c.345-.012.69-.022 1.035-.024h.597z" fill="url(#aj)" transform="matrix(-1 0 0 1 1311.27 -369.84)"/><g transform="matrix(-.83997 0 0 .83997 1386.578 -891.968)" fill="url(#ak)"><path d="M559.247 1680.557c-3.566 2.227-2.97 2.227-6.537 0-3.566-2.227-3.268-1.669-3.268-6.122 0-4.454-.298-3.896 3.268-6.122 3.567-2.227 2.97-2.227 6.537 0 3.566 2.226 3.268 1.668 3.268 6.122 0 4.453.298 3.895-3.268 6.122zM521.187 1651.457c-3.566 2.227-2.97 2.227-6.537 0-3.566-2.227-3.268-1.669-3.268-6.122 0-4.454-.298-3.896 3.268-6.122 3.567-2.227 2.97-2.227 6.537 0 3.566 2.226 3.268 1.668 3.268 6.122 0 4.453.298 3.895-3.268 6.122zM545.017 1632.757c-3.566 2.227-2.97 2.227-6.537 0-3.566-2.227-3.268-1.669-3.268-6.122 0-4.454-.298-3.896 3.268-6.122 3.567-2.227 2.97-2.227 6.537 0 3.566 2.226 3.268 1.668 3.268 6.122 0 4.453.298 3.895-3.268 6.122zM530.817 1680.557c-3.566 2.227-2.97 2.227-6.537 0-3.566-2.227-3.268-1.669-3.268-6.122 0-4.454-.298-3.896 3.268-6.122 3.567-2.227 2.97-2.227 6.537 0 3.566 2.226 3.268 1.668 3.268 6.122 0 4.453.298 3.895-3.268 6.122zM568.857 1651.457c-3.566 2.227-2.97 2.227-6.537 0-3.566-2.227-3.268-1.669-3.268-6.122 0-4.454-.298-3.896 3.268-6.122 3.567-2.227 2.97-2.227 6.537 0 3.566 2.226 3.268 1.668 3.268 6.122 0 4.453.298 3.895-3.268 6.122z"/></g><g fill="url(#al)" transform="matrix(-1 0 0 1 1307.795 -368.448)"><path d="M393.134 888.053c-2.996 1.87-2.495 1.87-5.49 0-2.996-1.87-2.746-1.401-2.746-5.142 0-3.741-.25-3.272 2.746-5.143 2.995-1.87 2.494-1.87 5.49 0s2.745 1.402 2.745 5.143c0 3.74.25 3.272-2.745 5.142zM361.174 863.623c-2.996 1.87-2.495 1.87-5.49 0-2.996-1.87-2.746-1.401-2.746-5.142 0-3.741-.25-3.272 2.746-5.143 2.995-1.87 2.494-1.87 5.49 0s2.745 1.402 2.745 5.143c0 3.74.25 3.272-2.745 5.142zM381.184 847.913c-2.996 1.87-2.495 1.87-5.49 0-2.996-1.87-2.746-1.401-2.746-5.142 0-3.741-.25-3.272 2.746-5.143 2.995-1.87 2.494-1.87 5.49 0s2.745 1.402 2.745 5.143c0 3.74.25 3.272-2.745 5.142zM369.254 888.053c-2.996 1.87-2.495 1.87-5.49 0-2.996-1.87-2.746-1.401-2.746-5.142 0-3.741-.25-3.272 2.746-5.143 2.995-1.87 2.494-1.87 5.49 0s2.745 1.402 2.745 5.143c0 3.74.25 3.272-2.745 5.142zM401.204 863.623c-2.996 1.87-2.495 1.87-5.49 0-2.996-1.87-2.746-1.401-2.746-5.142 0-3.741-.25-3.272 2.746-5.143 2.995-1.87 2.494-1.87 5.49 0s2.745 1.402 2.745 5.143c0 3.74.25 3.272-2.745 5.142z"/></g><path d="M377.2 852.23c.138 0 .275.01.412.015.117.01.23.013.347.024h.035l.234.03c.042 0 .086.01.128.015l.169.027c.098.015.196.03.293.047h.01c.01 0 .017 0 .026.01.096.018.192.036.288.056l.204.047.175.041.21.056.13.035c.102.03.203.062.303.095 3.16 1.032 5.812 3.577 7.03 6.684.03.069.059.138.086.207.01.023.015.045.024.068.047.12.096.242.14.365.01.03.019.062.03.092l.026.08.047.148.03.089.056.184c.015.049.028.099.042.148.002.01.004.01.006.015l.059.231c.017.067.037.132.053.199.003.013.003.029.006.042.019.079.04.155.056.234a104.115 104.115 0 0 0 .057.275 12 12 0 0 1 .127.794l.012.086c.008.063.014.124.02.187l.01.07v.04c.007.075.015.15.02.225.008.087.016.177.021.264v.018c.011.188.018.378.021.566.048 3.272-1.132 6.568-3.411 8.927a10.625 10.625 0 0 1-.614.59l-.03.027a11.148 11.148 0 0 1-.406.35l-.106.089c-.085.069-.171.133-.258.199-.009.01-.018.014-.027.02-.08.062-.16.117-.243.175-.018.013-.035.03-.053.042-.01.01-.022.011-.033.018-.09.062-.178.125-.27.184h-.002l-.045.027a11.334 11.334 0 0 1-.631.37 10.03 10.03 0 0 1-.332.173c-.028.014-.055.025-.083.038a11.339 11.339 0 0 1-.637.285c-2.724 1.097-5.904 1.069-8.551-.274-.5-.24-.978-.515-1.429-.826l-.163-.122c-.055-.04-.111-.078-.166-.119-.008-.01-.016-.012-.023-.018-.04-.03-.08-.058-.119-.089l-.062-.05c-.056-.044-.114-.088-.169-.133-.004 0-.008-.01-.012-.012l-.074-.059-.1-.086-.036-.03a7.16 7.16 0 0 1-.14-.121l-.08-.071-.088-.083-.125-.119c-.014-.013-.028-.025-.041-.039l-.17-.166-.154-.16-.157-.169a11.84 11.84 0 0 1-.278-.314l-.027-.03a12.726 12.726 0 0 1-.228-.276c-.038-.047-.073-.095-.11-.142-.002 0-.004 0-.006-.01-.077-.1-.151-.2-.225-.302l-.119-.17c-.008-.01-.016-.023-.023-.035-.048-.07-.096-.137-.143-.208l-.074-.112-.083-.13c-1.496-2.376-2.2-5.275-1.89-8.068.032-.385.086-.768.156-1.147l.006-.024c.016-.082.03-.165.048-.246a12.005 12.005 0 0 1 .198-.8l.03-.11.047-.154.018-.065.015-.044c.028-.09.058-.178.089-.267l.05-.142c.019-.052.037-.106.057-.157l.038-.104c.013-.035.025-.07.039-.104l.059-.151c.013-.034.03-.067.044-.1a12.623 12.623 0 0 1 .288-.644c.002 0 .004 0 .006-.01l.009-.027c.072-.147.148-.292.225-.436l.015-.027.098-.178.035-.065c.046-.08.093-.158.14-.237 1.427-2.384 3.642-4.281 6.34-5.086a10.363 10.363 0 0 1 1.887-.391c.11-.012.22-.021.33-.03.018 0 .037 0 .056-.01h.038c.114-.01.23-.016.344-.021h.024c.121 0 .242-.01.364-.01h.21z" fill="url(#am)" filter="url(#an)" transform="matrix(-1 0 0 1 1307.795 -368.448)"/></g><g opacity=".888" color="#000"><path d="M445.87 756.63c2.095 9.532 25.426 48.41 28.67 74.967 8.705 71.272-31.816 140.06-97.253 140.06-43.33 0-91.84-35.756-112.5-73.268 12.374 56.422 59.303 98.396 115.3 98.396 65.437 0 109.57-70.577 118.47-128.04 6.32-40.805-42.119-92.966-52.68-112.12z" fill="url(#af)" opacity=".535" transform="matrix(-.37863 0 0 .70059 268.77 -142.52)"/><path d="M379.21 732.58c-48.349.474-92.405 34.473-109.81 78.875-22.259 53.137-8.308 120.04 36.188 157.5 33.884 29.909 85.735 37.395 126.25 16.844 49.431-23.722 77.512-81.015 71.562-134.75-4.277-50.548-39.036-98.699-88.438-113.44-10.816-3.319-22.129-4.974-33.438-5.031-.77-.01-1.545-.01-2.313 0zm2.313 7.063c10.704.054 21.417 1.608 31.655 4.75 46.763 13.952 79.671 59.558 83.72 107.41 5.631 50.866-20.929 105.11-67.72 127.56-38.352 19.453-87.456 12.373-119.53-15.939-42.119-35.458-55.32-98.795-34.25-149.09 16.74-42.698 59.506-75.26 106.12-74.688z" fill="url(#ag)" transform="matrix(-.37863 0 0 .70059 268.77 -142.52)"/><path d="M379.29 737.93a99.21 99.21 0 0 0-4.344.156c-1.229.065-2.434.11-3.656.219l-.344.031c-.831.077-1.672.215-2.5.313-.44.052-.874.098-1.312.156-.602.079-1.213.16-1.813.25-1.033.155-2.067.345-3.094.531-.028.01-.064-.01-.093 0-.1.018-.181.013-.281.031-1.014.187-2.026.408-3.032.625-.722.155-1.437.33-2.156.5-.61.145-1.237.25-1.844.406-.742.19-1.48.42-2.219.625-.459.128-.917.241-1.374.375-1.067.313-2.131.655-3.188 1-33.321 10.876-61.283 37.712-74.125 70.47-.304.726-.616 1.455-.906 2.187-.095.238-.157.48-.25.719a124.646 124.646 0 0 0-1.438 3.843c-.112.319-.234.618-.344.938-.095.277-.188.566-.28.844-.175.518-.334 1.041-.5 1.562-.103.319-.182.65-.282.969-.2.64-.435 1.263-.625 1.906-.153.519-.291 1.042-.438 1.563-.017.06-.045.126-.062.187-.225.806-.416 1.627-.625 2.438-.182.703-.361 1.387-.531 2.093-.034.139-.061.268-.094.407-.196.828-.413 1.667-.594 2.5-.002.01.002.022 0 .03-.043.199-.052.396-.093.594-.164.771-.35 1.54-.5 2.313a132.97 132.97 0 0 0-.532 2.937c-.166.98-.292 1.955-.437 2.938-.122.83-.269 1.668-.375 2.5-.039.3-.089.605-.125.906-.08.662-.117 1.306-.188 1.969-.026.251-.068.498-.093.75-.014.13-.019.244-.032.375-.077.792-.155 1.612-.218 2.406-.074.92-.164 1.829-.22 2.75-.003.07.005.149 0 .219-.114 1.982-.157 3.983-.187 5.969-.506 34.497 11.907 69.214 35.938 94.094.691.715 1.384 1.457 2.094 2.156.713.7 1.425 1.378 2.156 2.062.732.684 1.468 1.365 2.22 2.032.1.089.21.192.312.28.65.577 1.3 1.126 1.969 1.688.758.67 1.535 1.354 2.312 2 .37.309.75.603 1.125.907a104.97 104.97 0 0 0 2.719 2.125c.09.069.19.119.281.187.85.637 1.695 1.264 2.563 1.875.193.136.368.271.562.406.107.074.236.145.344.219.946.651 1.877 1.286 2.844 1.906h.03c.16.102.342.212.5.313 1.038.657 2.068 1.285 3.126 1.906 1.158.68 2.35 1.363 3.531 2 1.149.619 2.3 1.204 3.469 1.781.297.147.608.294.906.438.84.405 1.65.803 2.5 1.187 1.388.626 2.807 1.244 4.219 1.813 28.715 11.573 62.22 11.28 90.125-2.875a111.45 111.45 0 0 0 15.063-8.75c.588-.406 1.17-.833 1.75-1.25.581-.418 1.145-.822 1.719-1.25l.25-.188c.424-.318.83-.644 1.25-.968.219-.17.438-.33.656-.5.592-.465 1.198-.93 1.781-1.407.044-.036.081-.089.125-.125.26-.213.523-.41.781-.625.362-.302.705-.6 1.063-.906.123-.105.253-.207.375-.312.493-.426.982-.88 1.469-1.313.28-.25.565-.497.843-.75.32-.29.621-.58.938-.875.44-.408.879-.804 1.312-1.219.148-.14.291-.264.438-.406.59-.57 1.202-1.167 1.781-1.75.562-.567 1.105-1.141 1.656-1.719.556-.582 1.082-1.157 1.625-1.75.998-1.088 1.98-2.189 2.938-3.312.092-.108.19-.205.281-.313.81-.956 1.625-1.957 2.406-2.937.395-.495.77-.969 1.157-1.469.017-.022.045-.04.062-.062a128.23 128.23 0 0 0 2.375-3.188c.432-.596.828-1.208 1.25-1.812.082-.118.168-.225.25-.344.506-.73 1.009-1.447 1.5-2.187.264-.399.521-.818.781-1.219.297-.459.615-.913.907-1.375 15.777-25.04 23.167-55.581 19.906-85.031-.343-4.052-.914-8.091-1.657-12.094-.016-.09-.045-.191-.062-.281-.162-.861-.32-1.705-.5-2.563a128.117 128.117 0 0 0-1.313-5.656c-.24-.932-.489-1.855-.75-2.781-.11-.39-.23-.769-.343-1.157-.159-.541-.304-1.085-.47-1.625-.07-.23-.146-.457-.218-.687l-.156-.5c-.299-.945-.617-1.875-.938-2.813-.172-.502-.353-.999-.531-1.5-.195-.55-.39-1.108-.594-1.656-.133-.359-.27-.704-.406-1.062-.14-.37-.262-.757-.406-1.125-.207-.529-.412-1.037-.625-1.563-.143-.352-.323-.711-.469-1.062-.594-1.429-1.2-2.843-1.844-4.25-.386-.843-.752-1.697-1.156-2.532l-.062-.125c-.044-.089-.082-.16-.125-.25a132.88 132.88 0 0 0-2.375-4.593c-.053-.098-.104-.214-.157-.313-.334-.619-.655-1.23-1-1.844-.129-.23-.275-.458-.406-.687a130.64 130.64 0 0 0-1.469-2.5c-15.044-25.136-38.405-45.172-66.844-53.656a108.974 108.974 0 0 0-16.719-3.719c-1.06-.15-2.123-.256-3.187-.375-1.149-.128-2.317-.25-3.469-.344-.2-.016-.393-.047-.594-.062l-.406-.03a114.806 114.806 0 0 0-3.625-.188h-.25c-1.283-.049-2.56-.087-3.844-.094-.738-.01-1.482-.01-2.219 0zm24.188 18.125c23.199 5.396 44.143 20.141 58.344 39.719-11.597 7.972-22.435 14.102-32.969 11.844a10.673 10.673 0 0 0-.125-.031c-7.137-1.455-14.693-5.062-20.031-9.875-5.338-4.813-8.436-10.326-8.688-16.844a10.673 10.673 0 0 0 0-.344c-.543-7.71 1.02-15.897 3.47-24.469zm-63.156 6.688c3.915 14.772 8.299 26.914 4.438 36.905-.008.021-.023.041-.032.062-2.935 6.941-8.328 13.801-14.594 18.156-6.284 4.369-12.984 6.262-19.906 4.97a10.673 10.673 0 0 0-.125 0c-6.408-1.133-12.975-4.72-19.812-8.876 10.29-21.978 28.261-40.582 50.031-51.219zm142.91 88.53c2.627 22.56-1.385 46.038-11.375 66.312-4.024-3.076-7.819-6.173-10.938-9.343-5.59-5.682-8.896-11.066-9.531-17.781a10.673 10.673 0 0 0-.031-.219c-.841-7.275.286-15.49 3.218-22s7.254-11.186 13.438-13.53a10.673 10.673 0 0 0 .25-.095c4.372-1.787 9.525-2.694 14.97-3.344zm-203.88 22.531c5.877.128 11.615.412 16.625 1.407 7.541 1.497 13.098 4.099 17.219 9.187a10.673 10.673 0 0 0 .312.375c4.73 5.305 8.455 12.622 9.72 19.594s.315 13.226-3.376 18.5a10.673 10.673 0 0 0-.25.375c-3.52 5.5-9.001 10.463-15.03 15.5-14.698-18.272-23.41-41.285-25.22-64.938zm120.62 59.656a10.673 10.673 0 0 0 .031 0c11.846-.276 22.857 10.724 27.25 23.281a10.673 10.673 0 0 0 .344.875c.993 2.191 1.772 3.993 2.437 5.688-21.378 12.719-48.385 16.453-72.687 10.156 4.995-13.65 8.37-25.572 16.5-32.281a10.673 10.673 0 0 0 .344-.281c5.812-5.211 15.37-7.234 25.781-7.438z" fill="url(#ao)" transform="matrix(-.37863 0 0 .70059 268.77 -142.52)"/><path d="M379.31 737.93a99.734 99.734 0 0 0-4.348.15c-1.23.065-2.437.13-3.659.24l-.36.03c-.831.077-1.661.202-2.489.3-.44.052-.88.092-1.32.15-.601.079-1.199.18-1.799.27-1.033.154-2.062.324-3.088.51-.03.01-.061-.01-.09 0-.1.017-.2.041-.3.06-1.013.186-2.023.382-3.029.6-.723.154-1.44.339-2.16.509-.609.145-1.222.264-1.829.42-.742.19-1.481.394-2.219.6-.459.127-.922.255-1.38.39-1.066.312-2.121.644-3.178.989-33.32 10.876-61.29 37.716-74.13 70.473-.305.726-.61 1.457-.9 2.19-.095.237-.178.48-.27.719a124.49 124.49 0 0 0-1.44 3.838c-.112.319-.22.64-.33.96-.095.277-.177.562-.27.84a125.66 125.66 0 0 0-.51 1.56c-.102.318-.2.639-.3.959-.2.64-.41 1.276-.6 1.919-.152.518-.303 1.039-.449 1.56-.017.06-.043.118-.06.18-.225.805-.42 1.618-.63 2.428-.182.704-.37 1.393-.54 2.1-.033.138-.056.28-.09.42-.196.828-.389 1.656-.57 2.488-.001.01.003.021 0 .03-.042.199-.077.402-.12.6-.163.771-.33 1.535-.479 2.31-.189.975-.373 1.958-.54 2.938-.166.98-.305 1.956-.45 2.939-.122.83-.253 1.657-.36 2.489-.038.3-.083.599-.12.9-.08.661-.139 1.316-.21 1.979-.026.251-.064.498-.09.75-.013.13-.017.259-.03.39-.077.792-.146 1.605-.21 2.398-.073.92-.154 1.838-.21 2.76-.003.07.005.14 0 .21-.114 1.981-.18 3.981-.21 5.967-.506 34.497 11.927 69.224 35.957 94.104.69.715 1.389 1.43 2.1 2.13.712.7 1.427 1.384 2.158 2.068.732.684 1.468 1.373 2.22 2.04l.3.27c.65.576 1.31 1.146 1.979 1.709.758.67 1.531 1.333 2.309 1.979.37.308.734.627 1.11.93.893.722 1.812 1.407 2.728 2.099.091.069.179.141.27.21.85.637 1.711 1.248 2.579 1.86.194.135.375.284.57.419.107.074.222.136.33.21.946.651 1.882 1.299 2.849 1.92h.03c.158.101.32.198.48.299 1.036.658 2.09 1.298 3.148 1.92a109.11 109.11 0 0 0 6.987 3.778c.298.146.602.276.9.42.84.405 1.669.815 2.519 1.2 1.388.625 2.786 1.23 4.198 1.798 28.715 11.573 62.24 11.276 90.145-2.879a111.16 111.16 0 0 0 15.054-8.726c.589-.406 1.16-.843 1.74-1.26.581-.417 1.166-.83 1.739-1.26l.24-.179c.424-.319.84-.636 1.26-.96.219-.17.441-.339.66-.51.591-.464 1.186-.933 1.769-1.409.044-.036.076-.084.12-.12.26-.213.52-.414.78-.63.36-.302.72-.593 1.079-.9.123-.104.237-.224.36-.33.493-.425.983-.855 1.47-1.289.28-.25.56-.497.839-.75.32-.29.643-.575.96-.87.44-.407.855-.814 1.289-1.229.147-.14.303-.278.45-.42.59-.57 1.19-1.156 1.77-1.739.561-.566 1.098-1.132 1.648-1.709.556-.582 1.106-1.176 1.65-1.77.997-1.087 1.98-2.175 2.939-3.298.092-.108.178-.222.27-.33a126.39 126.39 0 0 0 2.399-2.909c.394-.494.782-.999 1.17-1.5.016-.021.042-.037.06-.06.81-1.049 1.59-2.103 2.368-3.178.432-.596.838-1.196 1.26-1.8.082-.117.158-.24.24-.36.506-.729 1.008-1.448 1.499-2.188.264-.399.52-.799.78-1.2.297-.458.608-.917.9-1.38 15.776-25.04 23.172-55.595 19.911-85.046a123.259 123.259 0 0 0-1.649-12.085c-.017-.09-.043-.18-.06-.27-.162-.861-.33-1.721-.51-2.58-.395-1.887-.838-3.769-1.32-5.637-.24-.932-.488-1.863-.749-2.789-.11-.389-.217-.782-.33-1.17-.158-.541-.314-1.08-.48-1.619-.07-.23-.138-.46-.21-.69l-.15-.48c-.298-.945-.609-1.88-.93-2.818-.17-.503-.361-1-.539-1.5-.196-.55-.397-1.101-.6-1.65-.133-.358-.253-.72-.39-1.079-.14-.37-.275-.74-.42-1.11-.206-.528-.416-1.063-.63-1.589-.142-.352-.303-.698-.449-1.05a132.148 132.148 0 0 0-1.86-4.258c-.385-.842-.765-1.684-1.169-2.519l-.06-.12c-.043-.089-.076-.18-.12-.27-.755-1.55-1.553-3.07-2.369-4.588-.053-.098-.097-.201-.15-.3a132.914 132.914 0 0 0-1.41-2.549c-.477-.84-.972-1.66-1.469-2.489-15.044-25.136-38.405-45.165-66.844-53.649a109.145 109.145 0 0 0-16.734-3.718c-1.06-.15-2.114-.271-3.178-.39a113.427 113.427 0 0 0-3.45-.33c-.2-.016-.399-.045-.599-.06l-.42-.03a115.112 115.112 0 0 0-3.628-.21h-.24a117.002 117.002 0 0 0-3.839-.09c-.738-.01-1.482-.01-2.219 0zm16.434 5.758c5.645.768 11.226 1.957 16.674 3.628 27.252 8.131 49.658 27.291 64.145 51.34-17.182 10.738-36.574 32.463-69.723 11.036-27.076-17.502-16.267-46.18-11.096-66.004zm-47.712 4.408c1.714 20.478 24.715 48.844-9.806 76.92-22.812 18.553-44.62 4.318-61.386-6.717.36-.924.726-1.844 1.11-2.76 12.196-31.111 38.568-56.707 70.082-67.443zm144.36 91.645c.787 4.1 1.358 8.23 1.71 12.385 3.12 28.181-3.895 57.423-18.894 81.448-15.43-13.21-42.822-24.768-32.567-63.366 7.062-26.582 30.353-29.45 49.751-30.468zm-224.04 23.181c20.232 1.53 48.956-4.95 63.276 32.118 11.229 29.067-12.303 45.774-28.189 58.597-23.359-23.89-35.475-57.402-35.086-90.715zm129.37 59.977c29.796-.709 38.249 26.118 45.402 44.863a106.872 106.872 0 0 1-15.114 8.847c-26.405 13.393-58.023 13.898-85.347 3.328 11.025-17.359 8.619-54.53 53.499-56.978a49.201 49.201 0 0 1 1.56-.06z" fill="url(#ai)" transform="matrix(-.37863 0 0 .70059 268.77 -142.52)"/><path d="M382.19 830.79c.39 0 .78.021 1.169.042.33.017.655.038.984.067h.1c.225.021.442.058.665.084.119.014.244.026.362.042.162.021.318.052.48.076.277.042.556.085.832.135h.025c.027 0 .049.012.076.017.272.05.545.101.816.16.194.041.386.088.58.134.164.039.333.076.496.118.2.05.399.104.597.16.124.034.247.065.37.1.287.084.574.177.858.27 8.967 2.926 16.492 10.149 19.948 18.964.082.195.166.391.244.588.025.064.042.13.067.194.134.342.273.687.395 1.034.03.086.055.175.085.26l.075.228c.047.14.09.28.135.42.027.086.057.167.084.253.054.172.109.348.16.521l.117.42c.005.016.013.026.017.042.06.217.112.438.168.656.05.19.106.374.152.564.009.037.008.08.017.118.052.223.11.44.16.664v.01l.033.16a35.051 35.051 0 0 1 .488 2.876c.01.081.024.163.033.244.022.178.04.351.06.53.006.068.018.134.024.202.004.035-.003.074 0 .109.021.213.042.426.06.64.02.247.043.5.058.748v.05c.031.534.051 1.073.06 1.607.136 9.284-3.214 18.635-9.68 25.33-.187.193-.373.385-.564.573-.192.188-.384.37-.58.555-.197.184-.395.367-.598.546l-.084.076c-.175.156-.35.312-.53.463-.204.18-.413.356-.622.53-.1.083-.202.17-.303.252-.24.195-.485.378-.731.564l-.076.059c-.229.171-.456.331-.69.496-.052.037-.099.08-.151.118-.029.02-.064.03-.093.05-.254.175-.505.354-.765.52h-.008c-.043.028-.083.049-.126.077a29.153 29.153 0 0 1-2.733 1.539c-.08.039-.155.07-.236.11a30.218 30.218 0 0 1-1.808.807c-7.728 3.114-16.753 3.035-24.263-.774a29.922 29.922 0 0 1-4.053-2.346c-.159-.11-.307-.233-.463-.345-.156-.113-.317-.221-.47-.337l-.068-.05c-.114-.087-.224-.166-.337-.253-.059-.046-.118-.097-.176-.143-.16-.125-.323-.25-.48-.378-.011-.01-.021-.024-.033-.034-.07-.057-.14-.11-.21-.169-.098-.08-.19-.161-.286-.244l-.101-.084c-.133-.114-.265-.228-.396-.344l-.227-.202c-.086-.078-.167-.157-.252-.236-.118-.11-.236-.224-.353-.336-.04-.038-.078-.071-.118-.11a33.363 33.363 0 0 1-.48-.47c-.15-.153-.288-.3-.437-.455-.149-.156-.299-.32-.445-.479-.269-.293-.533-.589-.79-.891-.026-.03-.052-.055-.077-.084a34.273 34.273 0 0 1-.647-.782c-.106-.134-.207-.27-.311-.404-.005-.01-.012-.011-.017-.017-.218-.283-.43-.569-.64-.858-.115-.16-.222-.317-.336-.48-.022-.031-.045-.068-.067-.1-.136-.197-.271-.39-.404-.589l-.21-.32c-.08-.123-.157-.245-.235-.37-4.246-6.738-6.243-14.966-5.366-22.892.092-1.09.246-2.177.446-3.254.005-.024.012-.043.017-.067.043-.232.086-.467.134-.698.107-.508.232-1.011.362-1.514.064-.25.131-.508.202-.757.03-.105.053-.207.084-.311.042-.146.09-.292.134-.437.02-.062.032-.124.05-.186.014-.043.03-.083.043-.126.08-.254.166-.504.252-.756.046-.136.095-.27.143-.404.053-.148.105-.298.16-.446.036-.097.073-.198.11-.294.037-.1.07-.195.109-.295.055-.142.11-.287.168-.428.038-.095.087-.192.126-.286a35.378 35.378 0 0 1 .816-1.825c.005-.011.011-.014.016-.025.012-.024.014-.052.026-.076.203-.418.42-.828.639-1.237l.042-.076c.09-.166.185-.34.277-.504.035-.062.066-.124.101-.185.129-.226.262-.45.396-.673 4.048-6.765 10.335-12.148 17.989-14.432a29.437 29.437 0 0 1 5.357-1.11c.309-.035.623-.06.933-.084.054 0 .106-.013.16-.017.038 0 .072-.01.11-.01.323-.024.651-.046.975-.06h.067c.345-.012.69-.022 1.035-.024h.597z" fill="url(#ap)" transform="matrix(-.37863 0 0 .70059 268.77 -142.52)"/><g transform="matrix(-.31804 0 0 .58847 298.6 -509.293)" fill="url(#ak)"><path d="M559.247 1680.557c-3.566 2.227-2.97 2.227-6.537 0-3.566-2.227-3.268-1.669-3.268-6.122 0-4.454-.298-3.896 3.268-6.122 3.567-2.227 2.97-2.227 6.537 0 3.566 2.226 3.268 1.668 3.268 6.122 0 4.453.298 3.895-3.268 6.122zM521.187 1651.457c-3.566 2.227-2.97 2.227-6.537 0-3.566-2.227-3.268-1.669-3.268-6.122 0-4.454-.298-3.896 3.268-6.122 3.567-2.227 2.97-2.227 6.537 0 3.566 2.226 3.268 1.668 3.268 6.122 0 4.453.298 3.895-3.268 6.122zM545.017 1632.757c-3.566 2.227-2.97 2.227-6.537 0-3.566-2.227-3.268-1.669-3.268-6.122 0-4.454-.298-3.896 3.268-6.122 3.567-2.227 2.97-2.227 6.537 0 3.566 2.226 3.268 1.668 3.268 6.122 0 4.453.298 3.895-3.268 6.122zM530.817 1680.557c-3.566 2.227-2.97 2.227-6.537 0-3.566-2.227-3.268-1.669-3.268-6.122 0-4.454-.298-3.896 3.268-6.122 3.567-2.227 2.97-2.227 6.537 0 3.566 2.226 3.268 1.668 3.268 6.122 0 4.453.298 3.895-3.268 6.122zM568.857 1651.457c-3.566 2.227-2.97 2.227-6.537 0-3.566-2.227-3.268-1.669-3.268-6.122 0-4.454-.298-3.896 3.268-6.122 3.567-2.227 2.97-2.227 6.537 0 3.566 2.226 3.268 1.668 3.268 6.122 0 4.453.298 3.895-3.268 6.122z"/></g><g transform="matrix(-.31804 0 0 .58847 297.776 -509.293)" fill="url(#aq)"><path d="M559.247 1680.557c-3.566 2.227-2.97 2.227-6.537 0-3.566-2.227-3.268-1.669-3.268-6.122 0-4.454-.298-3.896 3.268-6.122 3.567-2.227 2.97-2.227 6.537 0 3.566 2.226 3.268 1.668 3.268 6.122 0 4.453.298 3.895-3.268 6.122zM521.187 1651.457c-3.566 2.227-2.97 2.227-6.537 0-3.566-2.227-3.268-1.669-3.268-6.122 0-4.454-.298-3.896 3.268-6.122 3.567-2.227 2.97-2.227 6.537 0 3.566 2.226 3.268 1.668 3.268 6.122 0 4.453.298 3.895-3.268 6.122zM545.017 1632.757c-3.566 2.227-2.97 2.227-6.537 0-3.566-2.227-3.268-1.669-3.268-6.122 0-4.454-.298-3.896 3.268-6.122 3.567-2.227 2.97-2.227 6.537 0 3.566 2.226 3.268 1.668 3.268 6.122 0 4.453.298 3.895-3.268 6.122zM530.817 1680.557c-3.566 2.227-2.97 2.227-6.537 0-3.566-2.227-3.268-1.669-3.268-6.122 0-4.454-.298-3.896 3.268-6.122 3.567-2.227 2.97-2.227 6.537 0 3.566 2.226 3.268 1.668 3.268 6.122 0 4.453.298 3.895-3.268 6.122zM568.857 1651.457c-3.566 2.227-2.97 2.227-6.537 0-3.566-2.227-3.268-1.669-3.268-6.122 0-4.454-.298-3.896 3.268-6.122 3.567-2.227 2.97-2.227 6.537 0 3.566 2.226 3.268 1.668 3.268 6.122 0 4.453.298 3.895-3.268 6.122z"/></g><path d="M377.2 852.23c.138 0 .275.01.412.015.117.01.23.013.347.024h.035l.234.03c.042 0 .086.01.128.015l.169.027c.098.015.196.03.293.047h.01c.01 0 .017 0 .026.01.096.018.192.036.288.056l.204.047.175.041.21.056.13.035c.102.03.203.062.303.095 3.16 1.032 5.812 3.577 7.03 6.684.03.069.059.138.086.207.01.023.015.045.024.068.047.12.096.242.14.365.01.03.019.062.03.092l.026.08.047.148.03.089.056.184c.015.049.028.099.042.148.002.01.004.01.006.015l.059.231c.017.067.037.132.053.199.003.013.003.029.006.042.019.079.04.155.056.234a104.115 104.115 0 0 0 .057.275 12 12 0 0 1 .127.794l.012.086c.008.063.014.124.02.187l.01.07v.04c.007.075.015.15.02.225.008.087.016.177.021.264v.018c.011.188.018.378.021.566.048 3.272-1.132 6.568-3.411 8.927a10.625 10.625 0 0 1-.614.59l-.03.027a11.148 11.148 0 0 1-.406.35l-.106.089c-.085.069-.171.133-.258.199-.009.01-.018.014-.027.02-.08.062-.16.117-.243.175-.018.013-.035.03-.053.042-.01.01-.022.011-.033.018-.09.062-.178.125-.27.184h-.002l-.045.027a11.334 11.334 0 0 1-.631.37 10.03 10.03 0 0 1-.332.173c-.028.014-.055.025-.083.038a11.339 11.339 0 0 1-.637.285c-2.724 1.097-5.904 1.069-8.551-.274-.5-.24-.978-.515-1.429-.826l-.163-.122c-.055-.04-.111-.078-.166-.119-.008-.01-.016-.012-.023-.018-.04-.03-.08-.058-.119-.089l-.062-.05c-.056-.044-.114-.088-.169-.133-.004 0-.008-.01-.012-.012l-.074-.059-.1-.086-.036-.03a7.16 7.16 0 0 1-.14-.121l-.08-.071-.088-.083-.125-.119c-.014-.013-.028-.025-.041-.039l-.17-.166-.154-.16-.157-.169a11.84 11.84 0 0 1-.278-.314l-.027-.03a12.726 12.726 0 0 1-.228-.276c-.038-.047-.073-.095-.11-.142-.002 0-.004 0-.006-.01-.077-.1-.151-.2-.225-.302l-.119-.17c-.008-.01-.016-.023-.023-.035-.048-.07-.096-.137-.143-.208l-.074-.112-.083-.13c-1.496-2.376-2.2-5.275-1.89-8.068.032-.385.086-.768.156-1.147l.006-.024c.016-.082.03-.165.048-.246a12.005 12.005 0 0 1 .198-.8l.03-.11.047-.154.018-.065.015-.044c.028-.09.058-.178.089-.267l.05-.142c.019-.052.037-.106.057-.157l.038-.104c.013-.035.025-.07.039-.104l.059-.151c.013-.034.03-.067.044-.1a12.623 12.623 0 0 1 .288-.644c.002 0 .004 0 .006-.01l.009-.027c.072-.147.148-.292.225-.436l.015-.027.098-.178.035-.065c.046-.08.093-.158.14-.237 1.427-2.384 3.642-4.281 6.34-5.086a10.363 10.363 0 0 1 1.887-.391c.11-.012.22-.021.33-.03.018 0 .037 0 .056-.01h.038c.114-.01.23-.016.344-.021h.024c.121 0 .242-.01.364-.01h.21z" fill="url(#ar)" transform="matrix(-.37863 0 0 .70059 268.77 -142.52)"/></g><path d="M788.94 526.62l-.25.098c10.673 5.639 58.158 71.562 62.25 85.833l28.156.131c-8.086-17.504-36.922-60.81-60.438-81.694z" fill="url(#as)" transform="matrix(-1 0 0 1 1311.27 -369.84)"/><path d="M787.33 526.35l-.25.094c10.673 5.638 58.755 72.092 62.847 86.363 0 0 .484 1.06 1.5 0-.511-1.784-1.695-4.383-3.406-7.563s-3.934-6.925-6.531-11.062c-2.597-4.137-5.55-8.654-8.72-13.312s-6.57-9.476-10-14.219-6.905-9.423-10.28-13.812c-3.376-4.389-6.648-8.495-9.656-12.094s-5.735-6.692-8.063-9.062c-2.278-2.32-4.736-4.416-6.065-5.145l-1.375-.187z" fill="url(#at)" transform="matrix(-1 0 0 1 1311.27 -369.84)"/><path d="M817.88 530.65l-.25.094c10.673 5.638 55.384 67.974 61.465 81.892h1.5c-.511-1.784.25.213-1.462-2.967s-3.934-6.924-6.53-11.062c-2.598-4.137-5.55-8.653-8.72-13.312s-6.57-9.476-10-14.219-6.905-9.423-10.28-13.812c-3.376-4.389-6.649-8.495-9.657-12.094s-5.735-6.692-8.062-9.062c-2.279-2.32-5.299-4.54-6.628-5.27l-1.375-.187z" fill="url(#au)" transform="matrix(-1 0 0 1 1311.27 -369.84)"/><path transform="matrix(-1 0 0 1 1920 0)" d="M1428.6 161.14l.702.45c30.93 1.483 218.08 63.147 242.12 80.061l2.937-.125c-2.253-1.585-5.871-3.553-10.594-5.844-.597-.29-1.304-.606-1.937-.906-33.94-15.674-118.32-44.657-176.16-61.406-2.274-.517-4.433-1.033-6.25-1.562-10.74-3.13-20.471-5.232-28.364-7.095-7.725-1.823-20.382-3.525-22.462-3.573z" fill="url(#av)"/><g color="#000"><path d="M1128.1 771a82936.015 82936.015 0 0 1-290.56 38.5 395612.731 395612.731 0 0 1-290.22 37.812 355.27 355.27 0 0 1-2.688 22.25c-.15.98-.361 1.87-.593 2.719 22.357-2.94 43.865-5.765 66.53-8.75 158.3-20.494 325.7-42.92 511.87-68.094 1.736-8.199 3.56-16.4 5.657-24.438z" fill="url(#aw)" filter="url(#ax)" transform="matrix(-1 0 0 1 1311.27 -369.84)"/><path d="M-44.606 874.22c15.108 11.402 25.322 19.279 34.045 26.512 49.337 12.697 92.201 22.792 139.77 17.802 16.495-1.73 47.708-9.786 63.971-13.83 0 0-132.43 13.737-237.79-30.485z" fill="url(#ay)" filter="url(#az)" opacity=".491" transform="matrix(-1 0 0 1 1311.27 -369.84)"/><path d="M1123.3 791.56c-60.749 5.605-117.83 10.847-172.28 15.812 12.413 3.102 32.185 5.445 39.844 9.344 6.053 2.115 28.572 43.872 34.656 60.656 2.046 1.838 4.832 3.444 7.813 2.625 7.551-2.077 14.472-5.717 21.562-8.875l-9.313-37.75c-.846-3.432 1.541-5.718 3.813-7.813 9.763-9.005 39.743-19.553 73.125-30.375.259-1.212.52-2.412.78-3.625z" fill="url(#aA)" opacity=".672" transform="matrix(-1 0 0 1 1311.27 -369.84)"/><path d="M1022.9 908.26c-11.193-.309-77.047 4.608-95 7.054-18.274 2.489-5 2.71-5-20.268 0-19.776 12.493-57.217 29.474-69.413 1.484-1.066 7.37-3.711 10.248-6.58 2.459-2.45 1.95-5.258 3.135-5.258 5.237 0 13.878 1.15 19.733 4.858 10.054 6.368 27.334 39.057 35.058 63.78 3.619 11.581 4.02 25.873 2.352 25.827z" fill="url(#aB)" filter="url(#aC)" transform="matrix(-1 0 0 1 1311.27 -369.84)"/><path d="M1122.5 797.15c-33.382 10.608-63.361 20.949-73.125 29.776-2.272 2.054-4.659 4.294-3.812 7.658l13.75 54.712c.846 3.364 3.784 4.493 6.875 4.473 10.612-.068 21.609 1.554 32.062.797 4.858-15.215 10.824-39.713 17.594-67.425 2.38-9.746 4.468-19.866 6.656-29.991z" fill="url(#aD)" transform="matrix(-1 0 0 1 1311.27 -369.84)"/><path transform="matrix(-1 0 0 .98029 1311.27 -352.201)" d="M1122.5 795.19c-22.468 7.284-43.366 14.445-57.625 21.094-.82 1.493-1.177 3.17-.687 5.156 7.38 24.217 10.44 43.136 12.76 67.353 3.122.178 7.472 5.989 7.472 5.989s9.793.082 13.83-.217c4.859-15.52 10.824-40.512 17.594-68.78 2.38-9.943 4.468-20.266 6.656-30.595z" fill="url(#aE)"/><path d="M917.91 617.69c18.962 12.511 23.76 48.638 21.969 72.906-1.3 17.604-3.193 34.604-6.406 51.656-4.088 21.697-16.344 64.188-16.344 64.188l-13.75 18.688h2.156l13.75-18.688s12.224-42.491 16.312-64.188c3.213-17.052 5.107-34.052 6.406-51.656 1.791-24.268-3.006-60.395-21.969-72.906-60.959-.535-70.112-.771-2.125 0z" fill="url(#aF)" transform="matrix(-1 0 0 1 1311.27 -369.84)"/></g><path d="M-285.23 719.36c14.605-2.76 27.562-10.123 39.421-16.087l-15.38.177c-16.276 7.454-19.791 11.23-24.042 15.91" fill="url(#aG)" stroke="#1a1a1a" stroke-linecap="round" stroke-linejoin="round" transform="matrix(-1 0 0 1 1311.27 -369.84)"/><g color="#000"><path d="M342.64 606.03c-67.024 12.612-194.16 64.515-194.16 64.515s154.72-35.516 200.28-44.365c85.797-16.664 147.89 17.785 167.47 33.254 3.821 3.019 20.363-9.262 21.727-13.937 3.08-10.553-48.957-24.444-59.583-27.263-33.637-8.922-47.585-12.553-75.334-15.298-27.748-2.745-40.583-.633-60.392 3.095z" fill="url(#aH)" filter="url(#aI)" transform="matrix(-1 0 0 1 1311.27 -369.84)"/><path d="M463.59 611.75a1.236 1.236 0 0 0-.75.313c17.002 5.151 29.862 26.994 48.844 44.688 13.055 12.169 25.076 26.633 34.094 42.375 16.904 29.508 23.875 64.294 23.875 93.938 0 22.75 2.264 53.59-1.844 76.812h2.125c4.101-23.223 1.844-54.06 1.844-76.812 0-29.643-6.971-64.43-23.875-93.938-9.018-15.742-21.038-30.206-34.094-42.375-19.283-17.974-32.248-40.248-49.656-44.938a1.76 1.76 0 0 0-.563-.063z" fill="url(#aJ)" transform="matrix(-1 0 0 1 1311.27 -369.84)"/><path d="M527.75 534.75c-.595.364-1.189.728-1.781 1.094a159.278 159.278 0 0 1 9.531 5.094c5.691 3.311 11.15 6.987 16.375 10.938.557-.4 1.127-.79 1.688-1.188-5.177-3.905-10.585-7.534-16.22-10.812a159.333 159.333 0 0 0-9.593-5.125z" fill="url(#aK)" transform="matrix(-1 0 0 1 1311.27 -369.84)"/></g></svg>